<svg width="92" height="103" viewBox="0 0 92 103" fill="none" xmlns="http://www.w3.org/2000/svg">
<path d="M7.59766 79.9726L46.5722 99.7692L84.0667 79.9726V2.55908H7.59766V79.9726Z" fill="white"/>
<path d="M84.8564 2.85632L6.80859 81.3533L47.2632 101.347L84.8564 82.1412V2.85632Z" fill="#F2F3F2"/>
<path d="M5.03125 28.3653V81.6486L6.41263 82.3381L45.3872 102.135L46.5712 102.726L47.7553 102.135L85.3485 82.3381L86.7298 81.6486V0H5.03125V28.3653ZM7.59666 80.1713V2.56075H84.1644V80.1713L46.5712 99.9679L7.59666 80.1713Z" fill="#DCDEDC"/>
<path d="M45.8815 3.84113C46.2761 3.84113 46.6708 3.84113 47.0655 3.93962L45.8815 6.2049C44.1054 6.10641 42.5267 7.48528 42.428 9.25811C42.3293 11.0309 43.7107 12.6068 45.4868 12.7053H45.8815C46.6708 12.7053 47.4602 12.4098 48.0522 11.9174L49.3349 14.0841C48.3482 14.7736 47.1642 15.1675 45.8815 15.1675C42.724 15.266 40.0599 12.9023 39.9613 9.75056C39.8626 6.59887 42.2307 3.93962 45.3881 3.84113H45.8815ZM49.9269 8.66717L51.407 11.1294L49.9269 13.4932L48.5455 11.1294H45.6841L47.1642 8.66717H49.9269ZM47.5588 7.78075C47.5588 7.38679 47.6575 6.99283 47.8549 6.69736C48.0522 6.40188 48.4469 6.10641 48.7429 5.90943L48.9402 5.81094C49.3349 5.61396 49.4336 5.51547 49.4336 5.31849C49.4336 5.12151 49.1376 4.92453 48.9402 4.92453C48.5455 4.92453 48.2495 5.12151 48.0522 5.51547L47.5588 5.02302C47.6575 4.82604 47.8548 4.62905 48.0522 4.43207C48.3482 4.23509 48.6442 4.23509 48.9402 4.23509C49.2362 4.23509 49.6309 4.33358 49.8282 4.53056C50.0256 4.72755 50.2229 5.02302 50.2229 5.31849C50.2229 5.81094 49.9269 6.2049 49.3349 6.40188L49.0389 6.59886C48.7429 6.79585 48.5455 6.89434 48.4469 7.18981H50.2229V7.87924L47.5588 7.78075ZM45.8815 20.0921L55.2551 14.7736V0H36.4092V14.6751L45.8815 20.0921ZM88.6055 54.9577H3.15743L0 61.852L3.15743 68.7464H88.6055L91.6642 61.852L88.6055 54.9577Z" fill="#FF492C"/>
<path d="M16.6756 40.1745C17.3268 40.1745 17.8991 40.3058 18.3924 40.5684C18.8858 40.8311 19.2673 41.2086 19.537 41.7011C19.8067 42.187 19.9415 42.7451 19.9415 43.3754C19.9415 43.9992 19.8034 44.5474 19.5271 45.0202C19.2443 45.4864 18.8496 45.8508 18.3431 46.1134C17.8366 46.3761 17.2511 46.5074 16.5868 46.5074H14.4851C14.439 46.5074 14.416 46.5337 14.416 46.5862V50.3485C14.416 50.4011 14.3963 50.4438 14.3568 50.4766C14.3239 50.5094 14.2812 50.5258 14.2285 50.5258H12.5018C12.4492 50.5258 12.4064 50.5094 12.3736 50.4766C12.3407 50.4438 12.3242 50.4011 12.3242 50.3485V40.3518C12.3242 40.2992 12.3407 40.2565 12.3736 40.2237C12.4064 40.1909 12.4492 40.1745 12.5018 40.1745H16.6756ZM16.3598 44.8429C16.8203 44.8429 17.1854 44.7116 17.455 44.449C17.7313 44.1863 17.8695 43.8449 17.8695 43.4247C17.8695 42.9847 17.7313 42.6334 17.455 42.3708C17.1854 42.1016 16.8203 41.967 16.3598 41.967H14.4851C14.439 41.967 14.416 41.9933 14.416 42.0458V44.7641C14.416 44.8167 14.439 44.8429 14.4851 44.8429H16.3598ZM27.4108 45.946C27.4635 46.3203 27.4799 46.7372 27.4602 47.1968C27.4536 47.3216 27.3911 47.384 27.2727 47.384H22.7043C22.6451 47.384 22.6221 47.407 22.6352 47.4529C22.6681 47.6499 22.724 47.8469 22.803 48.0439C23.0595 48.5954 23.5824 48.8712 24.3718 48.8712C25.0033 48.8646 25.4999 48.6085 25.8617 48.103C25.9078 48.0439 25.9538 48.0143 25.9999 48.0143C26.0262 48.0143 26.0591 48.034 26.0985 48.0734L27.1642 49.1174C27.2168 49.1699 27.2431 49.2159 27.2431 49.2553C27.2431 49.275 27.2234 49.3144 27.1839 49.3735C26.855 49.7806 26.4373 50.0925 25.9308 50.3091C25.4111 50.5324 24.8454 50.644 24.2337 50.644C23.3917 50.644 22.6747 50.4536 22.0827 50.0728C21.4972 49.6854 21.0762 49.147 20.8197 48.4575C20.6092 47.9651 20.5039 47.3216 20.5039 46.5271C20.5039 45.9821 20.5796 45.5028 20.7309 45.0891C20.9611 44.3931 21.3591 43.8383 21.9248 43.4247C22.4905 43.011 23.1615 42.8042 23.9377 42.8042C24.9244 42.8042 25.717 43.0898 26.3156 43.661C26.9142 44.2323 27.2793 44.9939 27.4108 45.946ZM23.9574 44.6065C23.3325 44.6065 22.9214 44.8954 22.724 45.4733C22.6845 45.6046 22.6517 45.7622 22.6253 45.946C22.6253 45.992 22.6517 46.015 22.7043 46.015H25.2598C25.319 46.015 25.3388 45.992 25.319 45.946C25.2664 45.6637 25.2401 45.5258 25.2401 45.5324C25.1546 45.2369 25 45.0071 24.7763 44.8429C24.5593 44.6853 24.2863 44.6065 23.9574 44.6065ZM32.5417 42.8337C32.8969 42.8337 33.1797 42.9027 33.3902 43.0405C33.4626 43.0799 33.4889 43.1522 33.4692 43.2572L33.1633 44.9414C33.1567 45.0596 33.0876 45.0957 32.9561 45.0497C32.8048 44.9972 32.6338 44.971 32.443 44.971C32.3641 44.971 32.2522 44.9808 32.1075 45.0005C31.7589 45.0333 31.4596 45.1647 31.2096 45.3945C30.9662 45.6243 30.8445 45.9329 30.8445 46.3203V50.3485C30.8445 50.4011 30.8248 50.4438 30.7853 50.4766C30.7524 50.5094 30.713 50.5258 30.6669 50.5258H28.9303C28.8843 50.5258 28.8415 50.5094 28.8021 50.4766C28.7692 50.4438 28.7527 50.4011 28.7527 50.3485V43.1095C28.7527 43.0635 28.7692 43.0208 28.8021 42.9814C28.8415 42.9486 28.8843 42.9322 28.9303 42.9322H30.6669C30.713 42.9322 30.7524 42.9486 30.7853 42.9814C30.8248 43.0208 30.8445 43.0635 30.8445 43.1095V43.6709C30.8445 43.6971 30.8544 43.7168 30.8741 43.73C30.8873 43.7431 30.9005 43.7365 30.9136 43.7103C31.3214 43.1259 31.8641 42.8337 32.5417 42.8337ZM38.8467 42.9224C38.8993 42.9224 38.942 42.9388 38.9749 42.9716C39.0078 43.0044 39.0243 43.0471 39.0243 43.0996V44.4982C39.0243 44.5507 39.0078 44.5934 38.9749 44.6262C38.942 44.6591 38.8993 44.6755 38.8467 44.6755H37.416C37.3633 44.6755 37.337 44.6985 37.337 44.7444V50.3485C37.337 50.4011 37.3206 50.4438 37.2877 50.4766C37.2548 50.5094 37.212 50.5258 37.1594 50.5258H35.4327C35.3801 50.5258 35.3373 50.5094 35.3044 50.4766C35.2715 50.4438 35.2551 50.4011 35.2551 50.3485V44.7444C35.2551 44.6985 35.2288 44.6755 35.1761 44.6755H34.3079C34.2552 44.6755 34.2125 44.6591 34.1796 44.6262C34.1467 44.5934 34.1302 44.5507 34.1302 44.4982V43.0996C34.1302 43.0471 34.1467 43.0044 34.1796 42.9716C34.2125 42.9388 34.2552 42.9224 34.3079 42.9224H35.1761C35.2288 42.9224 35.2551 42.8961 35.2551 42.8436V42.5185C35.2551 41.9079 35.3472 41.4319 35.5314 41.0904C35.7221 40.7556 36.0247 40.5159 36.4391 40.3714C36.8601 40.227 37.4423 40.1646 38.1856 40.1843H38.748C38.794 40.1843 38.8335 40.2007 38.8664 40.2336C38.9059 40.273 38.9256 40.3156 38.9256 40.3616V41.5533C38.9256 41.6059 38.9059 41.6485 38.8664 41.6814C38.8335 41.7208 38.794 41.7405 38.748 41.7405H38.2546C37.9126 41.747 37.6725 41.816 37.5344 41.9473C37.4028 42.0852 37.337 42.3314 37.337 42.686V42.8436C37.337 42.8961 37.3633 42.9224 37.416 42.9224H38.8467ZM43.1388 50.644C42.31 50.644 41.5996 50.4273 41.0075 49.994C40.4155 49.5606 40.011 48.9697 39.7939 48.2211C39.6558 47.7615 39.5867 47.2592 39.5867 46.7142C39.5867 46.1364 39.6558 45.6144 39.7939 45.1482C40.0241 44.4194 40.4352 43.8482 41.0273 43.4345C41.6193 43.0208 42.3297 42.814 43.1585 42.814C43.961 42.814 44.6517 43.0176 45.2306 43.4247C45.7963 43.8383 46.1976 44.4096 46.4344 45.1384C46.5988 45.6308 46.681 46.1463 46.681 46.6847C46.681 47.2165 46.612 47.7156 46.4738 48.1817C46.2568 48.95 45.8522 49.5508 45.2602 49.9841C44.6748 50.4241 43.9676 50.644 43.1388 50.644ZM43.1388 48.8613C43.4611 48.8613 43.7374 48.7628 43.9676 48.5659C44.1979 48.3689 44.3623 48.0964 44.461 47.7484C44.5333 47.4332 44.5695 47.0885 44.5695 46.7142C44.5695 46.3006 44.5333 45.9526 44.461 45.6702C44.3491 45.3354 44.1814 45.0727 43.9578 44.8823C43.7275 44.6985 43.448 44.6065 43.1191 44.6065C42.7902 44.6065 42.5139 44.6985 42.2902 44.8823C42.0666 45.0727 41.9054 45.3354 41.8068 45.6702C41.7278 45.9001 41.6884 46.2481 41.6884 46.7142C41.6884 47.1607 41.7245 47.5054 41.7969 47.7484C41.8956 48.0964 42.06 48.3689 42.2902 48.5659C42.5205 48.7628 42.8033 48.8613 43.1388 48.8613ZM51.8119 42.8337C52.1671 42.8337 52.4499 42.9027 52.6604 43.0405C52.7394 43.0799 52.7657 43.1522 52.7394 43.2572L52.4335 44.9414C52.4269 45.0596 52.3579 45.0957 52.2263 45.0497C52.075 44.9972 51.904 44.971 51.7132 44.971C51.6343 44.971 51.5257 44.9808 51.3876 45.0005C51.0324 45.0333 50.7298 45.1647 50.4798 45.3945C50.2365 45.6243 50.1148 45.9329 50.1148 46.3203V50.3485C50.1148 50.4011 50.095 50.4438 50.0556 50.4766C50.0227 50.5094 49.9799 50.5258 49.9273 50.5258H48.2006C48.1545 50.5258 48.1118 50.5094 48.0723 50.4766C48.0394 50.4438 48.023 50.4011 48.023 50.3485V43.1095C48.023 43.0635 48.0394 43.0208 48.0723 42.9814C48.1118 42.9486 48.1545 42.9322 48.2006 42.9322H49.9273C49.9799 42.9322 50.0227 42.9486 50.0556 42.9814C50.095 43.0208 50.1148 43.0635 50.1148 43.1095V43.6709C50.1148 43.6971 50.1213 43.7168 50.1345 43.73C50.1608 43.7431 50.1772 43.7365 50.1838 43.7103C50.5917 43.1259 51.1343 42.8337 51.8119 42.8337ZM62.1229 42.814C62.8925 42.814 63.4944 43.0438 63.9285 43.5034C64.3627 43.9696 64.5798 44.623 64.5798 45.4634V50.3485C64.5798 50.4011 64.5633 50.4438 64.5304 50.4766C64.4975 50.5094 64.4581 50.5258 64.412 50.5258H62.6754C62.6294 50.5258 62.5866 50.5094 62.5472 50.4766C62.5143 50.4438 62.4978 50.4011 62.4978 50.3485V45.9165C62.4978 45.5159 62.3959 45.1975 62.1919 44.9611C61.9814 44.7247 61.7019 44.6065 61.3532 44.6065C61.0112 44.6065 60.7316 44.7247 60.5146 44.9611C60.2975 45.1975 60.1889 45.5127 60.1889 45.9066V50.3485C60.1889 50.4011 60.1725 50.4438 60.1396 50.4766C60.1001 50.5094 60.0574 50.5258 60.0113 50.5258H58.2945C58.2419 50.5258 58.1991 50.5094 58.1662 50.4766C58.1333 50.4438 58.1169 50.4011 58.1169 50.3485V45.9165C58.1169 45.5225 58.0083 45.2041 57.7913 44.9611C57.5742 44.7247 57.2913 44.6065 56.9427 44.6065C56.6335 44.6065 56.3704 44.6985 56.1534 44.8823C55.9429 45.0727 55.8179 45.3354 55.7784 45.6702V50.3485C55.7784 50.4011 55.762 50.4438 55.7291 50.4766C55.6896 50.5094 55.6468 50.5258 55.6008 50.5258H53.8741C53.8215 50.5258 53.7787 50.5094 53.7458 50.4766C53.7129 50.4438 53.6965 50.4011 53.6965 50.3485V43.1095C53.6965 43.0635 53.7129 43.0208 53.7458 42.9814C53.7787 42.9486 53.8215 42.9322 53.8741 42.9322H55.6008C55.6468 42.9322 55.6896 42.9486 55.7291 42.9814C55.762 43.0208 55.7784 43.0635 55.7784 43.1095V43.6906C55.7784 43.7168 55.7883 43.7365 55.808 43.7497C55.8277 43.7562 55.8475 43.7431 55.8672 43.7103C56.275 43.1128 56.9032 42.814 57.7518 42.814C58.2451 42.814 58.676 42.9191 59.0444 43.1292C59.4127 43.3327 59.6956 43.6282 59.8929 44.0156C59.9192 44.0747 59.9554 44.0747 60.0015 44.0156C60.212 43.6085 60.5047 43.3065 60.8796 43.1095C61.248 42.9125 61.6624 42.814 62.1229 42.814ZM72.7397 45.946C72.7989 46.3203 72.8187 46.7372 72.7989 47.1968C72.7858 47.3216 72.72 47.384 72.6016 47.384H68.0332C67.974 47.384 67.9543 47.407 67.974 47.4529C68.0003 47.6499 68.0529 47.8469 68.1319 48.0439C68.3884 48.5954 68.9114 48.8712 69.7007 48.8712C70.3322 48.8646 70.8321 48.6085 71.2005 48.103C71.24 48.0439 71.2827 48.0143 71.3288 48.0143C71.3617 48.0143 71.3978 48.034 71.4373 48.0734L72.5029 49.1174C72.549 49.1699 72.572 49.2159 72.572 49.2553C72.572 49.275 72.5523 49.3144 72.5128 49.3735C72.1905 49.7806 71.7728 50.0925 71.2597 50.3091C70.7466 50.5324 70.1842 50.644 69.5724 50.644C68.7239 50.644 68.0069 50.4536 67.4214 50.0728C66.8294 49.6854 66.4051 49.147 66.1486 48.4575C65.9447 47.9651 65.8427 47.3216 65.8427 46.5271C65.8427 45.9821 65.9151 45.5028 66.0598 45.0891C66.29 44.3931 66.688 43.8383 67.2537 43.4247C67.8194 43.011 68.4937 42.8042 69.2764 42.8042C70.2631 42.8042 71.0558 43.0898 71.6544 43.661C72.253 44.2323 72.6148 44.9939 72.7397 45.946ZM69.2863 44.6065C68.668 44.6065 68.2601 44.8954 68.0628 45.4733C68.0233 45.6046 67.9871 45.7622 67.9543 45.946C67.9543 45.992 67.9806 46.015 68.0332 46.015H70.5887C70.6479 46.015 70.6677 45.992 70.6479 45.946C70.6019 45.6637 70.5789 45.5258 70.5789 45.5324C70.4868 45.2369 70.3322 45.0071 70.1151 44.8429C69.8915 44.6853 69.6152 44.6065 69.2863 44.6065ZM77.8706 42.8337C78.2258 42.8337 78.5086 42.9027 78.7191 43.0405C78.7981 43.0799 78.8277 43.1522 78.8079 43.2572L78.5021 44.9414C78.4889 45.0596 78.4165 45.0957 78.285 45.0497C78.1403 44.9972 77.9692 44.971 77.7719 44.971C77.693 44.971 77.5844 44.9808 77.4463 45.0005C77.0911 45.0333 76.7885 45.1647 76.5385 45.3945C76.2951 45.6243 76.1735 45.9329 76.1735 46.3203V50.3485C76.1735 50.4011 76.157 50.4438 76.1241 50.4766C76.0847 50.5094 76.0419 50.5258 75.9958 50.5258H74.2593C74.2132 50.5258 74.1737 50.5094 74.1409 50.4766C74.1014 50.4438 74.0817 50.4011 74.0817 50.3485V43.1095C74.0817 43.0635 74.1014 43.0208 74.1409 42.9814C74.1737 42.9486 74.2132 42.9322 74.2593 42.9322H75.9958C76.0419 42.9322 76.0847 42.9486 76.1241 42.9814C76.157 43.0208 76.1735 43.0635 76.1735 43.1095V43.6709C76.1735 43.6971 76.1833 43.7168 76.2031 43.73C76.2228 43.7431 76.2392 43.7365 76.2524 43.7103C76.6536 43.1259 77.193 42.8337 77.8706 42.8337ZM37.1594 25.588C37.1594 25.5421 37.1759 25.4994 37.2087 25.46C37.2416 25.4272 37.2811 25.4107 37.3271 25.4107H39.0637C39.1098 25.4107 39.1525 25.4272 39.192 25.46C39.2249 25.4994 39.2413 25.5421 39.2413 25.588V35.575C39.2413 35.6275 39.2249 35.6702 39.192 35.703C39.1525 35.7358 39.1098 35.7522 39.0637 35.7522H37.3271C37.2811 35.7522 37.2416 35.7358 37.2087 35.703C37.1759 35.6702 37.1594 35.6275 37.1594 35.575V31.4975C37.1594 31.4515 37.1331 31.4285 37.0805 31.4285H33.8046C33.7586 31.4285 33.7356 31.4515 33.7356 31.4975V35.575C33.7356 35.6275 33.7191 35.6702 33.6862 35.703C33.6468 35.7358 33.604 35.7522 33.558 35.7522H31.8214C31.7753 35.7522 31.7359 35.7358 31.703 35.703C31.6635 35.6702 31.6438 35.6275 31.6438 35.575V25.588C31.6438 25.5421 31.6635 25.4994 31.703 25.46C31.7359 25.4272 31.7753 25.4107 31.8214 25.4107H33.558C33.604 25.4107 33.6468 25.4272 33.6862 25.46C33.7191 25.4994 33.7356 25.5421 33.7356 25.588V29.5572C33.7356 29.6097 33.7586 29.636 33.8046 29.636H37.0805C37.1331 29.636 37.1594 29.6097 37.1594 29.5572V25.588ZM41.935 27.3018C41.5996 27.3018 41.32 27.1901 41.0963 26.9669C40.8727 26.7502 40.7609 26.4744 40.7609 26.1396C40.7609 25.7916 40.8694 25.5092 41.0865 25.2925C41.3035 25.0759 41.5864 24.9675 41.935 24.9675C42.2837 24.9675 42.5665 25.0759 42.7836 25.2925C43.0007 25.5092 43.1092 25.7916 43.1092 26.1396C43.1092 26.4744 42.9974 26.7502 42.7737 26.9669C42.5501 27.1901 42.2705 27.3018 41.935 27.3018ZM41.047 35.7522C41.001 35.7522 40.9582 35.7358 40.9187 35.703C40.8858 35.6702 40.8694 35.6275 40.8694 35.575V28.3261C40.8694 28.2735 40.8858 28.2309 40.9187 28.198C40.9582 28.1652 41.001 28.1488 41.047 28.1488H42.7836C42.8296 28.1488 42.8691 28.1652 42.902 28.198C42.9415 28.2309 42.9612 28.2735 42.9612 28.3261V35.575C42.9612 35.6275 42.9415 35.6702 42.902 35.703C42.8691 35.7358 42.8296 35.7522 42.7836 35.7522H41.047ZM49.2267 28.3359C49.2267 28.2899 49.2465 28.2473 49.2859 28.2079C49.3188 28.175 49.3583 28.1586 49.4043 28.1586H51.1409C51.187 28.1586 51.2297 28.175 51.2692 28.2079C51.3021 28.2473 51.3185 28.2899 51.3185 28.3359V35.0727C51.3185 36.3596 50.9469 37.2788 50.2036 37.8304C49.4602 38.3885 48.4999 38.6676 47.3224 38.6676C46.9738 38.6676 46.589 38.6413 46.168 38.5888C46.0693 38.5756 46.02 38.5133 46.02 38.4016L46.0792 36.875C46.0792 36.7437 46.1482 36.6879 46.2864 36.7076C46.6416 36.7667 46.9672 36.7962 47.2632 36.7962C47.8947 36.7962 48.3815 36.6616 48.7235 36.3924C49.059 36.1101 49.2267 35.6669 49.2267 35.0628C49.2267 35.03 49.2169 35.0103 49.1971 35.0037C49.1774 34.9972 49.1577 35.007 49.1379 35.0333C48.763 35.4338 48.217 35.6341 47.5 35.6341C46.8554 35.6341 46.2666 35.4798 45.7338 35.1711C45.1944 34.8625 44.8096 34.3635 44.5794 33.6741C44.4347 33.221 44.3623 32.6334 44.3623 31.9111C44.3623 31.1429 44.4511 30.5191 44.6287 30.0398C44.8326 29.4357 45.1813 28.9531 45.6746 28.592C46.168 28.2243 46.7435 28.0404 47.4013 28.0404C48.1578 28.0404 48.7367 28.267 49.1379 28.72C49.1577 28.7397 49.1774 28.7463 49.1971 28.7397C49.2169 28.7332 49.2267 28.7167 49.2267 28.6905V28.3359ZM49.1083 33.1028C49.1873 32.8139 49.2267 32.4101 49.2267 31.8914C49.2267 31.5894 49.2169 31.3563 49.1971 31.1921C49.1774 31.0214 49.1445 30.8605 49.0985 30.7095C49.0064 30.4469 48.8584 30.2335 48.6544 30.0693C48.4505 29.9118 48.194 29.833 47.8848 29.833C47.5888 29.833 47.3388 29.9118 47.1349 30.0693C46.9244 30.2335 46.7699 30.4469 46.6712 30.7095C46.533 31.005 46.464 31.4055 46.464 31.9111C46.464 32.4627 46.5232 32.8566 46.6416 33.093C46.7271 33.3622 46.8817 33.5756 47.1053 33.7332C47.329 33.8973 47.5921 33.9794 47.8947 33.9794C48.2104 33.9794 48.4735 33.8973 48.684 33.7332C48.888 33.5756 49.0294 33.3655 49.1083 33.1028ZM56.7848 28.0404C57.5742 28.0404 58.209 28.2834 58.6892 28.7693C59.1694 29.2486 59.4095 29.9019 59.4095 30.7292V35.575C59.4095 35.6275 59.393 35.6702 59.3601 35.703C59.3272 35.7358 59.2878 35.7522 59.2417 35.7522H57.5051C57.4591 35.7522 57.4163 35.7358 57.3769 35.703C57.344 35.6702 57.3275 35.6275 57.3275 35.575V31.1527C57.3275 30.7653 57.2157 30.4469 56.992 30.1974C56.775 29.9544 56.4823 29.833 56.1139 29.833C55.7521 29.833 55.4594 29.9544 55.2357 30.1974C55.0121 30.4469 54.9002 30.7653 54.9002 31.1527V35.575C54.9002 35.6275 54.8838 35.6702 54.8509 35.703C54.818 35.7358 54.7753 35.7522 54.7226 35.7522H52.9959C52.9433 35.7522 52.9005 35.7358 52.8676 35.703C52.8348 35.6702 52.8183 35.6275 52.8183 35.575V25.588C52.8183 25.5421 52.8348 25.4994 52.8676 25.46C52.9005 25.4272 52.9433 25.4107 52.9959 25.4107H54.7226C54.7753 25.4107 54.818 25.4272 54.8509 25.46C54.8838 25.4994 54.9002 25.5421 54.9002 25.588V28.8579C54.9002 28.8842 54.9101 28.9039 54.9298 28.917C54.9496 28.9236 54.9627 28.917 54.9693 28.8973C55.3771 28.3261 55.9823 28.0404 56.7848 28.0404Z" fill="#252530"/>
<path d="M27.9621 59.666C27.9621 59.6988 27.9522 59.7251 27.9325 59.7448C27.9062 59.7711 27.8766 59.7842 27.8437 59.7842H24.4791C24.4462 59.7842 24.4297 59.8006 24.4297 59.8334V61.6752C24.4297 61.708 24.4462 61.7245 24.4791 61.7245H26.7386C26.7715 61.7245 26.8011 61.7343 26.8274 61.754C26.8471 61.7803 26.857 61.8098 26.857 61.8426V62.5912C26.857 62.624 26.8471 62.6535 26.8274 62.6798C26.8011 62.6995 26.7715 62.7094 26.7386 62.7094H24.4791C24.4462 62.7094 24.4297 62.7258 24.4297 62.7586V64.6595C24.4297 64.6923 24.4462 64.7087 24.4791 64.7087H27.8437C27.8766 64.7087 27.9062 64.7219 27.9325 64.7481C27.9522 64.7678 27.9621 64.7941 27.9621 64.8269V65.5754C27.9621 65.6083 27.9522 65.6345 27.9325 65.6542C27.9062 65.6805 27.8766 65.6936 27.8437 65.6936H23.4036C23.3707 65.6936 23.3444 65.6805 23.3246 65.6542C23.2983 65.6345 23.2852 65.6083 23.2852 65.5754V58.9175C23.2852 58.8846 23.2983 58.8584 23.3246 58.8387C23.3444 58.8124 23.3707 58.7993 23.4036 58.7993H27.8437C27.8766 58.7993 27.9062 58.8124 27.9325 58.8387C27.9522 58.8584 27.9621 58.8846 27.9621 58.9175V59.666ZM31.4353 60.582C31.9681 60.582 32.3957 60.7395 32.718 61.0547C33.0337 61.3699 33.1916 61.8 33.1916 62.3449V65.5754C33.1916 65.6083 33.1784 65.6345 33.1521 65.6542C33.1324 65.6805 33.1061 65.6936 33.0732 65.6936H32.1654C32.1325 65.6936 32.1029 65.6805 32.0766 65.6542C32.0569 65.6345 32.047 65.6083 32.047 65.5754V62.5813C32.047 62.2793 31.9615 62.0331 31.7905 61.8426C31.6195 61.6588 31.3925 61.5669 31.1097 61.5669C30.8268 61.5669 30.5966 61.6588 30.419 61.8426C30.248 62.0265 30.1624 62.2694 30.1624 62.5715V65.5754C30.1624 65.6083 30.1526 65.6345 30.1328 65.6542C30.1065 65.6805 30.0769 65.6936 30.044 65.6936H29.1363C29.1034 65.6936 29.0771 65.6805 29.0573 65.6542C29.031 65.6345 29.0179 65.6083 29.0179 65.5754V60.7789C29.0179 60.7461 29.031 60.7166 29.0573 60.6903C29.0771 60.6706 29.1034 60.6608 29.1363 60.6608H30.044C30.0769 60.6608 30.1065 60.6706 30.1328 60.6903C30.1526 60.7166 30.1624 60.7461 30.1624 60.7789V61.0941C30.1624 61.1138 30.169 61.1269 30.1822 61.1335C30.1953 61.1401 30.2052 61.1335 30.2118 61.1138C30.4815 60.7592 30.8893 60.582 31.4353 60.582ZM37.0595 61.4684C37.0595 61.5012 37.0463 61.5275 37.02 61.5472C37.0003 61.5734 36.9739 61.5866 36.9411 61.5866H35.9346C35.9017 61.5866 35.8853 61.603 35.8853 61.6358V64.0094C35.8853 64.2589 35.9379 64.4395 36.0432 64.5511C36.155 64.6628 36.3293 64.7186 36.5661 64.7186H36.8621C36.895 64.7186 36.9213 64.7284 36.9411 64.7481C36.9674 64.7744 36.9805 64.8039 36.9805 64.8368V65.5754C36.9805 65.6477 36.9411 65.6903 36.8621 65.7035L36.349 65.7133C35.8294 65.7133 35.4413 65.6247 35.1847 65.4474C34.9282 65.2701 34.7966 64.9352 34.7901 64.4428V61.6358C34.7901 61.603 34.7736 61.5866 34.7407 61.5866H34.1783C34.1454 61.5866 34.1158 61.5734 34.0895 61.5472C34.0698 61.5275 34.0599 61.5012 34.0599 61.4684V60.7789C34.0599 60.7461 34.0698 60.7166 34.0895 60.6903C34.1158 60.6706 34.1454 60.6608 34.1783 60.6608H34.7407C34.7736 60.6608 34.7901 60.6443 34.7901 60.6115V59.4592C34.7901 59.4263 34.7999 59.3968 34.8197 59.3705C34.846 59.3508 34.8756 59.341 34.9085 59.341H35.7669C35.7998 59.341 35.8261 59.3508 35.8458 59.3705C35.8721 59.3968 35.8853 59.4263 35.8853 59.4592V60.6115C35.8853 60.6443 35.9017 60.6608 35.9346 60.6608H36.9411C36.9739 60.6608 37.0003 60.6706 37.02 60.6903C37.0463 60.7166 37.0595 60.7461 37.0595 60.7789V61.4684ZM42.2298 62.6109C42.2561 62.775 42.2692 62.9589 42.2692 63.1624L42.2594 63.4677C42.2594 63.5465 42.2199 63.5859 42.141 63.5859H39.0526C39.0197 63.5859 39.0033 63.6023 39.0033 63.6352C39.023 63.8518 39.0526 63.9996 39.0921 64.0784C39.2499 64.5511 39.6347 64.7908 40.2465 64.7974C40.6938 64.7974 41.049 64.6135 41.3121 64.2458C41.3384 64.2064 41.3713 64.1867 41.4108 64.1867C41.4371 64.1867 41.4601 64.1966 41.4799 64.2163L42.0916 64.7186C42.1508 64.7645 42.1607 64.8171 42.1212 64.8761C41.9173 65.1651 41.6476 65.3883 41.3121 65.5459C40.9701 65.7035 40.5918 65.7823 40.1774 65.7823C39.6643 65.7823 39.2269 65.6674 38.8651 65.4375C38.5099 65.2077 38.2501 64.886 38.0856 64.4723C37.9343 64.1178 37.8587 63.6253 37.8587 62.995C37.8587 62.6142 37.8982 62.3055 37.9771 62.0692C38.1086 61.6095 38.3586 61.2451 38.727 60.9759C39.0888 60.7133 39.5262 60.582 40.0393 60.582C41.3352 60.582 42.0653 61.2583 42.2298 62.6109ZM40.0393 61.5669C39.7959 61.5669 39.592 61.6292 39.4275 61.754C39.2697 61.8722 39.1578 62.0396 39.0921 62.2563C39.0526 62.3679 39.0263 62.5124 39.0131 62.6897C39 62.7225 39.0131 62.7389 39.0526 62.7389H41.0556C41.0885 62.7389 41.1049 62.7225 41.1049 62.6897C41.0918 62.5255 41.072 62.4008 41.0457 62.3154C40.9865 62.079 40.8714 61.8952 40.7004 61.7639C40.5228 61.6325 40.3024 61.5669 40.0393 61.5669ZM45.6635 60.6017C45.874 60.6017 46.0581 60.6443 46.216 60.7297C46.2686 60.756 46.2884 60.8052 46.2752 60.8774L46.1075 61.7639C46.1009 61.8426 46.0549 61.8656 45.9693 61.8328C45.8707 61.8 45.7556 61.7835 45.624 61.7835C45.5385 61.7835 45.4727 61.7868 45.4267 61.7934C45.1504 61.8065 44.9202 61.9017 44.736 62.079C44.5518 62.2629 44.4597 62.4992 44.4597 62.7881V65.5754C44.4597 65.6083 44.4498 65.6345 44.4301 65.6542C44.4038 65.6805 44.3742 65.6936 44.3413 65.6936H43.4335C43.4006 65.6936 43.3743 65.6805 43.3546 65.6542C43.3283 65.6345 43.3151 65.6083 43.3151 65.5754V60.7789C43.3151 60.7461 43.3283 60.7166 43.3546 60.6903C43.3743 60.6706 43.4006 60.6608 43.4335 60.6608H44.3413C44.3742 60.6608 44.4038 60.6706 44.4301 60.6903C44.4498 60.7166 44.4597 60.7461 44.4597 60.7789V61.2222C44.4597 61.2484 44.463 61.2615 44.4696 61.2615C44.4827 61.2681 44.4959 61.2615 44.509 61.2418C44.7853 60.8151 45.1701 60.6017 45.6635 60.6017ZM51.2975 61.9608C51.4159 62.2957 51.4751 62.7061 51.4751 63.192C51.4751 63.6582 51.4192 64.0587 51.3074 64.3935C51.1627 64.8269 50.9324 65.1651 50.6167 65.408C50.2944 65.6509 49.8898 65.7724 49.4031 65.7724C48.936 65.7724 48.5611 65.605 48.2782 65.2701C48.2651 65.257 48.2519 65.2537 48.2388 65.2603C48.2256 65.2668 48.219 65.28 48.219 65.2997V67.4369C48.219 67.4697 48.2092 67.496 48.1894 67.5157C48.1631 67.542 48.1335 67.5551 48.1006 67.5551H47.1928C47.16 67.5551 47.1336 67.542 47.1139 67.5157C47.0876 67.496 47.0744 67.4697 47.0744 67.4369V60.7789C47.0744 60.7461 47.0876 60.7166 47.1139 60.6903C47.1336 60.6706 47.16 60.6608 47.1928 60.6608H48.1006C48.1335 60.6608 48.1631 60.6706 48.1894 60.6903C48.2092 60.7166 48.219 60.7461 48.219 60.7789V61.0744C48.219 61.0941 48.2256 61.1072 48.2388 61.1138C48.2519 61.1204 48.2651 61.1138 48.2782 61.0941C48.5676 60.7527 48.9459 60.582 49.4129 60.582C49.88 60.582 50.2746 60.7034 50.597 60.9464C50.9193 61.1893 51.1528 61.5275 51.2975 61.9608ZM50.0148 64.3738C50.2121 64.0718 50.3108 63.6713 50.3108 63.1723C50.3108 62.6929 50.2319 62.3154 50.074 62.0396C49.8898 61.7179 49.6103 61.557 49.2353 61.557C48.8933 61.557 48.6367 61.7146 48.4657 62.0298C48.3144 62.2858 48.2388 62.6667 48.2388 63.1723C48.2388 63.691 48.321 64.0849 48.4854 64.3542C48.6565 64.6431 48.9031 64.7875 49.2254 64.7875C49.5741 64.7875 49.8372 64.6496 50.0148 64.3738ZM54.9286 60.6017C55.1391 60.6017 55.3232 60.6443 55.4811 60.7297C55.5337 60.756 55.5535 60.8052 55.5403 60.8774L55.3726 61.7639C55.366 61.8426 55.32 61.8656 55.2344 61.8328C55.1358 61.8 55.0207 61.7835 54.8891 61.7835C54.8036 61.7835 54.7378 61.7868 54.6918 61.7934C54.4155 61.8065 54.1853 61.9017 54.0011 62.079C53.8169 62.2629 53.7248 62.4992 53.7248 62.7881V65.5754C53.7248 65.6083 53.7149 65.6345 53.6952 65.6542C53.6689 65.6805 53.6393 65.6936 53.6064 65.6936H52.6986C52.6657 65.6936 52.6394 65.6805 52.6197 65.6542C52.5934 65.6345 52.5802 65.6083 52.5802 65.5754V60.7789C52.5802 60.7461 52.5934 60.7166 52.6197 60.6903C52.6394 60.6706 52.6657 60.6608 52.6986 60.6608H53.6064C53.6393 60.6608 53.6689 60.6706 53.6952 60.6903C53.7149 60.7166 53.7248 60.7461 53.7248 60.7789V61.2222C53.7248 61.2484 53.7281 61.2615 53.7347 61.2615C53.7478 61.2681 53.761 61.2615 53.7741 61.2418C54.0504 60.8151 54.4352 60.6017 54.9286 60.6017ZM56.9414 59.9713C56.7375 59.9713 56.5698 59.9057 56.4382 59.7743C56.3066 59.643 56.2409 59.4756 56.2409 59.272C56.2409 59.0685 56.3066 58.9011 56.4382 58.7697C56.5698 58.6384 56.7375 58.5728 56.9414 58.5728C57.1453 58.5728 57.3131 58.6384 57.4446 58.7697C57.5762 58.9011 57.642 59.0685 57.642 59.272C57.642 59.4756 57.5762 59.643 57.4446 59.7743C57.3131 59.9057 57.1453 59.9713 56.9414 59.9713ZM56.4678 65.6936C56.4349 65.6936 56.4086 65.6805 56.3889 65.6542C56.3626 65.6345 56.3494 65.6083 56.3494 65.5754V60.7691C56.3494 60.7363 56.3626 60.71 56.3889 60.6903C56.4086 60.664 56.4349 60.6509 56.4678 60.6509H57.3756C57.4085 60.6509 57.4381 60.664 57.4644 60.6903C57.4841 60.71 57.494 60.7363 57.494 60.7691V65.5754C57.494 65.6083 57.4841 65.6345 57.4644 65.6542C57.4381 65.6805 57.4085 65.6936 57.3756 65.6936H56.4678ZM60.681 65.7527C60.2666 65.7527 59.9015 65.6903 59.5858 65.5656C59.2766 65.4474 59.0365 65.28 58.8655 65.0633C58.6945 64.8532 58.6089 64.6168 58.6089 64.3542V64.2655C58.6089 64.2327 58.6188 64.2031 58.6385 64.1769C58.6649 64.1572 58.6945 64.1473 58.7273 64.1473H59.5956C59.6285 64.1473 59.6581 64.1572 59.6844 64.1769C59.7042 64.2031 59.714 64.2327 59.714 64.2655V64.2852C59.714 64.4494 59.8028 64.5938 59.9805 64.7186C60.1646 64.8368 60.3949 64.8958 60.6711 64.8958C60.9343 64.8958 61.148 64.8433 61.3125 64.7383C61.4769 64.6266 61.5592 64.4888 61.5592 64.3246C61.5592 64.1736 61.4901 64.0587 61.352 63.9799C61.2204 63.9077 61.0033 63.8289 60.7007 63.7435L60.3258 63.6253C59.9903 63.5268 59.7075 63.4218 59.4772 63.3102C59.247 63.1985 59.053 63.0442 58.8951 62.8472C58.7372 62.6568 58.6583 62.4106 58.6583 62.1086C58.6583 61.6489 58.8392 61.2845 59.201 61.0153C59.5628 60.7395 60.0397 60.6017 60.6317 60.6017C61.0329 60.6017 61.3849 60.664 61.6874 60.7888C61.99 60.9201 62.2235 61.0974 62.388 61.3206C62.5524 61.5505 62.6347 61.8098 62.6347 62.0987C62.6347 62.1315 62.6248 62.1611 62.6051 62.1874C62.5788 62.2071 62.5492 62.2169 62.5163 62.2169H61.6776C61.6447 62.2169 61.6151 62.2071 61.5888 62.1874C61.569 62.1611 61.5592 62.1315 61.5592 62.0987C61.5592 61.928 61.4769 61.7868 61.3125 61.6752C61.1415 61.557 60.9112 61.4979 60.6218 61.4979C60.3653 61.4979 60.1581 61.5439 60.0002 61.6358C59.8357 61.7343 59.7535 61.8689 59.7535 62.0396C59.7535 62.1972 59.8292 62.3154 59.9805 62.3942C60.1383 62.4795 60.3982 62.5715 60.7599 62.67L60.977 62.7291C61.3257 62.8341 61.6184 62.9392 61.8552 63.0442C62.092 63.1558 62.2926 63.3069 62.4571 63.4973C62.6215 63.6943 62.7037 63.9471 62.7037 64.2557C62.7037 64.7219 62.5196 65.0863 62.1512 65.3489C61.7828 65.6181 61.2928 65.7527 60.681 65.7527ZM67.9234 62.6109C67.9497 62.775 67.9628 62.9589 67.9628 63.1624L67.953 63.4677C67.953 63.5465 67.9135 63.5859 67.8346 63.5859H64.7462C64.7133 63.5859 64.6969 63.6023 64.6969 63.6352C64.7166 63.8518 64.7462 63.9996 64.7857 64.0784C64.9435 64.5511 65.3284 64.7908 65.9401 64.7974C66.3874 64.7974 66.7426 64.6135 67.0057 64.2458C67.0321 64.2064 67.065 64.1867 67.1044 64.1867C67.1307 64.1867 67.1538 64.1966 67.1735 64.2163L67.7852 64.7186C67.8444 64.7645 67.8543 64.8171 67.8148 64.8761C67.6109 65.1651 67.3379 65.3883 66.9959 65.5459C66.6604 65.7035 66.2855 65.7823 65.871 65.7823C65.358 65.7823 64.9205 65.6674 64.5587 65.4375C64.2035 65.2077 63.9437 64.886 63.7792 64.4723C63.6279 64.1178 63.5523 63.6253 63.5523 62.995C63.5523 62.6142 63.5918 62.3055 63.6707 62.0692C63.8023 61.6095 64.0489 61.2451 64.4107 60.9759C64.7791 60.7133 65.2198 60.582 65.7329 60.582C67.0288 60.582 67.7589 61.2583 67.9234 62.6109ZM65.7329 61.5669C65.4895 61.5669 65.2856 61.6292 65.1212 61.754C64.9633 61.8722 64.8515 62.0396 64.7857 62.2563C64.7462 62.3679 64.7199 62.5124 64.7067 62.6897C64.6936 62.7225 64.7067 62.7389 64.7462 62.7389H66.7492C66.7821 62.7389 66.7985 62.7225 66.7985 62.6897C66.7854 62.5255 66.7657 62.4008 66.7393 62.3154C66.6801 62.079 66.5617 61.8952 66.3841 61.7639C66.2131 61.6325 65.996 61.5669 65.7329 61.5669Z" fill="white"/>
<path d="M39.557 73.7592C39.557 73.792 39.5438 73.8183 39.5175 73.838C39.4978 73.8643 39.4715 73.8774 39.4386 73.8774H36.2121C36.1792 73.8774 36.1627 73.8938 36.1627 73.9267V75.4533C36.1627 75.4861 36.1792 75.5025 36.2121 75.5025H38.3335C38.3664 75.5025 38.3927 75.5123 38.4124 75.532C38.4387 75.5583 38.4519 75.5879 38.4519 75.6207V76.576C38.4519 76.6089 38.4387 76.6384 38.4124 76.6647C38.3927 76.6844 38.3664 76.6942 38.3335 76.6942H36.2121C36.1792 76.6942 36.1627 76.7107 36.1627 76.7435V79.4618C36.1627 79.4946 36.1529 79.5209 36.1331 79.5406C36.1068 79.5669 36.0772 79.58 36.0443 79.58H34.8899C34.857 79.58 34.8307 79.5669 34.811 79.5406C34.7846 79.5209 34.7715 79.4946 34.7715 79.4618V72.8039C34.7715 72.771 34.7846 72.7448 34.811 72.7251C34.8307 72.6988 34.857 72.6857 34.8899 72.6857H39.4386C39.4715 72.6857 39.4978 72.6988 39.5175 72.7251C39.5438 72.7448 39.557 72.771 39.557 72.8039V73.7592ZM43.9182 79.58C43.8524 79.58 43.8096 79.5472 43.7899 79.4815L43.4939 78.5163C43.4807 78.49 43.4643 78.4769 43.4446 78.4769H41.0173C40.9976 78.4769 40.9811 78.49 40.9679 78.5163L40.6818 79.4815C40.6621 79.5472 40.6193 79.58 40.5535 79.58H39.3004C39.261 79.58 39.2314 79.5669 39.2116 79.5406C39.1919 79.5209 39.1886 79.4881 39.2018 79.4421L41.333 72.7842C41.3528 72.7185 41.3955 72.6857 41.4613 72.6857H43.0104C43.0762 72.6857 43.1189 72.7185 43.1387 72.7842L45.27 79.4421C45.2765 79.4553 45.2798 79.4717 45.2798 79.4914C45.2798 79.5505 45.2436 79.58 45.1713 79.58H43.9182ZM41.3232 77.3443C41.3166 77.3837 41.3297 77.4034 41.3626 77.4034H43.0992C43.1387 77.4034 43.1518 77.3837 43.1387 77.3443L42.2507 74.4191C42.2441 74.3928 42.2342 74.3797 42.2211 74.3797C42.2079 74.3863 42.198 74.3994 42.1915 74.4191L41.3232 77.3443ZM46.2665 79.58C46.2336 79.58 46.2073 79.5669 46.1876 79.5406C46.1613 79.5209 46.1481 79.4946 46.1481 79.4618V72.8039C46.1481 72.771 46.1613 72.7448 46.1876 72.7251C46.2073 72.6988 46.2336 72.6857 46.2665 72.6857H47.421C47.4538 72.6857 47.4834 72.6988 47.5098 72.7251C47.5295 72.7448 47.5394 72.771 47.5394 72.8039V78.339C47.5394 78.3719 47.5558 78.3883 47.5887 78.3883H50.8152C50.8481 78.3883 50.8777 78.3981 50.904 78.4178C50.9237 78.4441 50.9336 78.4736 50.9336 78.5065V79.4618C50.9336 79.4946 50.9237 79.5209 50.904 79.5406C50.8777 79.5669 50.8481 79.58 50.8152 79.58H46.2665ZM51.9104 79.58C51.8775 79.58 51.8479 79.5669 51.8216 79.5406C51.8019 79.5209 51.792 79.4946 51.792 79.4618V72.8039C51.792 72.771 51.8019 72.7448 51.8216 72.7251C51.8479 72.6988 51.8775 72.6857 51.9104 72.6857H53.0649C53.0978 72.6857 53.1241 72.6988 53.1438 72.7251C53.1701 72.7448 53.1833 72.771 53.1833 72.8039V78.339C53.1833 78.3719 53.1997 78.3883 53.2326 78.3883H56.4591C56.492 78.3883 56.5216 78.3981 56.5479 78.4178C56.5676 78.4441 56.5775 78.4736 56.5775 78.5065V79.4618C56.5775 79.4946 56.5676 79.5209 56.5479 79.5406C56.5216 79.5669 56.492 79.58 56.4591 79.58H51.9104ZM36.9817 87.5873C36.9685 87.6004 36.9652 87.6136 36.9718 87.6267C36.9784 87.6398 36.9916 87.6464 37.0113 87.6464H39.6852C39.7181 87.6464 39.7477 87.6562 39.774 87.6759C39.7938 87.7022 39.8036 87.7317 39.8036 87.7646V88.7199C39.8036 88.7528 39.7938 88.779 39.774 88.7987C39.7477 88.825 39.7181 88.8381 39.6852 88.8381H35.2451C35.2122 88.8381 35.1826 88.825 35.1563 88.7987C35.1366 88.779 35.1267 88.7528 35.1267 88.7199V87.8138C35.1267 87.7547 35.1464 87.7055 35.1859 87.6661C35.5082 87.3509 35.8371 87.0095 36.1726 86.6418C36.5081 86.2675 36.7186 86.0344 36.8041 85.9425C36.9883 85.7258 37.1757 85.519 37.3665 85.322C37.9651 84.6588 38.2644 84.1664 38.2644 83.8447C38.2644 83.6148 38.1822 83.4244 38.0177 83.2734C37.8533 83.129 37.6395 83.0567 37.3764 83.0567C37.1132 83.0567 36.8995 83.129 36.735 83.2734C36.5706 83.4244 36.4883 83.6214 36.4883 83.8643V84.1106C36.4883 84.1434 36.4752 84.173 36.4489 84.1992C36.4291 84.2189 36.4028 84.2288 36.3699 84.2288H35.2056C35.1727 84.2288 35.1464 84.2189 35.1267 84.1992C35.1004 84.173 35.0872 84.1434 35.0872 84.1106V83.6477C35.107 83.2931 35.2188 82.9779 35.4227 82.7022C35.6266 82.4329 35.8963 82.2261 36.2318 82.0817C36.5739 81.9372 36.9554 81.865 37.3764 81.865C37.8434 81.865 38.2512 81.9503 38.5999 82.1211C38.9419 82.2983 39.2083 82.5347 39.3991 82.8302C39.5833 83.1257 39.6754 83.454 39.6754 83.8151C39.6754 84.0909 39.6063 84.3732 39.4682 84.6621C39.33 84.951 39.1228 85.2629 38.8465 85.5978C38.6426 85.8539 38.4223 86.1066 38.1855 86.3562C37.9487 86.6057 37.5967 86.9668 37.1297 87.4396L36.9817 87.5873ZM43.0104 88.9465C42.2868 88.9465 41.7146 88.7429 41.2936 88.3358C40.8726 87.9353 40.6621 87.387 40.6621 86.691V84.0909C40.6621 83.408 40.8726 82.8663 41.2936 82.4658C41.7146 82.0653 42.2868 81.865 43.0104 81.865C43.734 81.865 44.3096 82.0653 44.7371 82.4658C45.1581 82.8663 45.3686 83.408 45.3686 84.0909V86.691C45.3686 87.387 45.1581 87.9353 44.7371 88.3358C44.3096 88.7429 43.734 88.9465 43.0104 88.9465ZM43.0104 87.7547C43.3064 87.7547 43.5432 87.6628 43.7208 87.4789C43.8919 87.3017 43.9774 87.062 43.9774 86.76V84.0515C43.9774 83.7494 43.8919 83.5098 43.7208 83.3325C43.5432 83.1486 43.3064 83.0567 43.0104 83.0567C42.721 83.0567 42.4908 83.1486 42.3197 83.3325C42.1421 83.5098 42.0533 83.7494 42.0533 84.0515V86.76C42.0533 87.062 42.1421 87.3017 42.3197 87.4789C42.4908 87.6628 42.721 87.7547 43.0104 87.7547ZM48.1314 87.5873C48.1182 87.6004 48.1149 87.6136 48.1215 87.6267C48.1281 87.6398 48.1412 87.6464 48.161 87.6464H50.8349C50.8678 87.6464 50.8974 87.6562 50.9237 87.6759C50.9435 87.7022 50.9533 87.7317 50.9533 87.7646V88.7199C50.9533 88.7528 50.9435 88.779 50.9237 88.7987C50.8974 88.825 50.8678 88.8381 50.8349 88.8381H46.3948C46.3619 88.8381 46.3356 88.825 46.3159 88.7987C46.2895 88.779 46.2764 88.7528 46.2764 88.7199V87.8138C46.2764 87.7547 46.2961 87.7055 46.3356 87.6661C46.6579 87.3509 46.9868 87.0095 47.3223 86.6418C47.6578 86.2675 47.8683 86.0344 47.9538 85.9425C48.138 85.7258 48.3254 85.519 48.5162 85.322C49.1148 84.6588 49.4141 84.1664 49.4141 83.8447C49.4141 83.6148 49.3319 83.4244 49.1674 83.2734C49.003 83.129 48.7892 83.0567 48.5261 83.0567C48.2629 83.0567 48.0492 83.129 47.8847 83.2734C47.7203 83.4244 47.638 83.6214 47.638 83.8643V84.1106C47.638 84.1434 47.6282 84.173 47.6084 84.1992C47.5821 84.2189 47.5525 84.2288 47.5196 84.2288H46.3553C46.3224 84.2288 46.2961 84.2189 46.2764 84.1992C46.2501 84.173 46.2369 84.1434 46.2369 84.1106V83.6477C46.2566 83.2931 46.3685 82.9779 46.5724 82.7022C46.7763 82.4329 47.0493 82.2261 47.3914 82.0817C47.7268 81.9372 48.1051 81.865 48.5261 81.865C48.9931 81.865 49.4009 81.9503 49.7496 82.1211C50.0916 82.2983 50.358 82.5347 50.5488 82.8302C50.733 83.1257 50.8251 83.454 50.8251 83.8151C50.8251 84.0909 50.756 84.3732 50.6179 84.6621C50.4797 84.951 50.2725 85.2629 49.9962 85.5978C49.7923 85.8539 49.572 86.1066 49.3351 86.3562C49.0983 86.6057 48.7464 86.9668 48.2794 87.4396L48.1314 87.5873ZM53.6569 87.5873C53.6437 87.6004 53.6404 87.6136 53.647 87.6267C53.6536 87.6398 53.6668 87.6464 53.6865 87.6464H56.3604C56.3933 87.6464 56.4229 87.6562 56.4492 87.6759C56.469 87.7022 56.4788 87.7317 56.4788 87.7646V88.7199C56.4788 88.7528 56.469 88.779 56.4492 88.7987C56.4229 88.825 56.3933 88.8381 56.3604 88.8381H51.9203C51.8874 88.8381 51.8611 88.825 51.8414 88.7987C51.815 88.779 51.8019 88.7528 51.8019 88.7199V87.8138C51.8019 87.7547 51.8216 87.7055 51.8611 87.6661C52.1834 87.3509 52.5123 87.0095 52.8478 86.6418C53.1833 86.2675 53.3938 86.0344 53.4793 85.9425C53.6635 85.7258 53.8509 85.519 54.0417 85.322C54.6403 84.6588 54.9396 84.1664 54.9396 83.8447C54.9396 83.6148 54.8574 83.4244 54.6929 83.2734C54.5285 83.129 54.3147 83.0567 54.0516 83.0567C53.7884 83.0567 53.5747 83.129 53.4102 83.2734C53.2458 83.4244 53.1635 83.6214 53.1635 83.8643V84.1106C53.1635 84.1434 53.1537 84.173 53.1339 84.1992C53.1076 84.2189 53.078 84.2288 53.0451 84.2288H51.8808C51.8479 84.2288 51.8216 84.2189 51.8019 84.1992C51.7756 84.173 51.7624 84.1434 51.7624 84.1106V83.6477C51.7822 83.2931 51.894 82.9779 52.0979 82.7022C52.3018 82.4329 52.5748 82.2261 52.9169 82.0817C53.2523 81.9372 53.6306 81.865 54.0516 81.865C54.5186 81.865 54.9264 81.9503 55.2751 82.1211C55.6171 82.2983 55.8835 82.5347 56.0743 82.8302C56.2585 83.1257 56.3506 83.454 56.3506 83.8151C56.3506 84.0909 56.2815 84.3732 56.1434 84.6621C56.0052 84.951 55.798 85.2629 55.5217 85.5978C55.3178 85.8539 55.0975 86.1066 54.8607 86.3562C54.6238 86.6057 54.2719 86.9668 53.8049 87.4396L53.6569 87.5873Z" fill="#252530"/>
</svg>
