<svg width="93" height="103" viewBox="0 0 93 103" fill="none" xmlns="http://www.w3.org/2000/svg">
<path d="M7.63672 80.0387L46.8012 99.8515L84.4784 80.0387V2.56152H7.63672V80.0387Z" fill="white"/>
<path d="M85.2679 2.85889L6.83984 81.4203L47.4915 101.43L85.2679 82.2089V2.85889Z" fill="#F2F3F2"/>
<path d="M5.05664 28.3886V81.7158L6.44475 82.4058L45.6092 102.219L46.799 102.81L47.9888 102.219L85.7652 82.4058L87.1533 81.7158V0H5.05664V28.3886ZM7.63455 80.2372V2.56286H84.5754V80.2372L46.799 100.05L7.63455 80.2372Z" fill="#DCDEDC"/>
<path d="M46.105 3.84429C46.5016 3.84429 46.8982 3.84429 47.2948 3.94286L46.105 6.21C44.3203 6.11143 42.7339 7.49143 42.6347 9.26572C42.5356 11.04 43.9237 12.6171 45.7084 12.7157H46.105C46.8982 12.7157 47.6914 12.42 48.2863 11.9271L49.5753 14.0957C48.5838 14.7857 47.394 15.18 46.105 15.18C42.9322 15.2786 40.2551 12.9129 40.156 9.75858C40.0568 6.60429 42.4364 3.94286 45.6092 3.84429H46.105ZM50.1702 8.67429L51.6574 11.1386L50.1702 13.5043L48.7821 11.1386H45.9067L47.394 8.67429H50.1702ZM47.7906 7.78715C47.7906 7.39286 47.8897 6.99857 48.088 6.70286C48.2863 6.40715 48.6829 6.11143 48.9804 5.91429L49.1787 5.81572C49.5753 5.61857 49.6744 5.52 49.6744 5.32286C49.6744 5.12572 49.377 4.92857 49.1787 4.92857C48.7821 4.92857 48.4846 5.12572 48.2863 5.52L47.7906 5.02715C47.8897 4.83 48.088 4.63286 48.2863 4.43572C48.5838 4.23857 48.8812 4.23857 49.1787 4.23857C49.4761 4.23857 49.8727 4.33714 50.071 4.53429C50.2693 4.73143 50.4676 5.02715 50.4676 5.32286C50.4676 5.81572 50.1702 6.21 49.5753 6.40715L49.2778 6.60429C48.9804 6.80143 48.7821 6.9 48.6829 7.19572H50.4676V7.88572L47.7906 7.78715ZM46.105 20.1086L55.5243 14.7857V0H36.5865V14.6871L46.105 20.1086ZM89.0372 55.0029H3.17282L0 61.9029L3.17282 68.8029H89.0372L92.1108 61.9029L89.0372 55.0029Z" fill="#FF492C"/>
<path d="M18.5305 50.566C18.471 50.566 18.4214 50.5463 18.3818 50.5069C18.3421 50.4609 18.3223 50.4083 18.3223 50.3491V38.3629C18.3223 38.3037 18.3421 38.2511 18.3818 38.2051C18.4214 38.1657 18.471 38.146 18.5305 38.146H20.6226C20.6821 38.146 20.7316 38.1657 20.7713 38.2051C20.8176 38.2511 20.8407 38.3037 20.8407 38.3629V48.3284C20.8407 48.3876 20.8704 48.4171 20.9299 48.4171H26.76C26.8195 48.4171 26.8723 48.4369 26.9186 48.4763C26.9583 48.5223 26.9781 48.5749 26.9781 48.634V50.3491C26.9781 50.4083 26.9583 50.4609 26.9186 50.5069C26.8723 50.5463 26.8195 50.566 26.76 50.566H18.5305ZM36.4866 45.0657C36.5594 45.5126 36.5825 46.0153 36.5561 46.5739C36.5494 46.7184 36.4734 46.7907 36.328 46.7907H30.8152C30.7425 46.7907 30.7194 46.8203 30.7458 46.8794C30.7789 47.116 30.8417 47.3526 30.9342 47.5891C31.2449 48.2463 31.8761 48.5749 32.828 48.5749C33.5881 48.5683 34.1897 48.2627 34.6325 47.6581C34.6788 47.5859 34.7317 47.5497 34.7912 47.5497C34.8308 47.5497 34.8738 47.5727 34.9201 47.6187L36.1991 48.8804C36.2586 48.9396 36.2883 48.9921 36.2883 49.0381C36.2883 49.0644 36.2652 49.1137 36.2189 49.186C35.829 49.6657 35.3233 50.0403 34.7019 50.3097C34.0872 50.5726 33.4097 50.704 32.6694 50.704C31.6448 50.704 30.7789 50.474 30.0716 50.014C29.3643 49.554 28.8554 48.91 28.5447 48.082C28.2935 47.4906 28.1679 46.7151 28.1679 45.7557C28.1679 45.1051 28.2572 44.5334 28.4356 44.0406C28.7132 43.1994 29.1925 42.5291 29.8733 42.0297C30.5608 41.5369 31.3738 41.2904 32.3124 41.2904C33.5022 41.2904 34.4574 41.6321 35.1779 42.3156C35.8984 42.999 36.3346 43.9157 36.4866 45.0657ZM32.3322 43.4491C31.5787 43.4491 31.0829 43.7974 30.845 44.494C30.7987 44.6517 30.7591 44.8423 30.726 45.0657C30.726 45.1249 30.7557 45.1544 30.8152 45.1544H33.8988C33.9715 45.1544 33.9947 45.1249 33.9682 45.0657C33.9087 44.724 33.879 44.5597 33.879 44.5729C33.7732 44.218 33.5881 43.942 33.3237 43.7449C33.0527 43.5477 32.7222 43.4491 32.3322 43.4491ZM41.6821 41.3003C42.4555 41.3003 43.1463 41.435 43.7544 41.7044C44.3625 41.9673 44.8351 42.332 45.1722 42.7986C45.5093 43.2586 45.6779 43.7711 45.6779 44.3363V50.3491C45.6779 50.4083 45.6581 50.4609 45.6184 50.5069C45.5788 50.5463 45.5292 50.566 45.4697 50.566H43.3776C43.3181 50.566 43.2685 50.5463 43.2289 50.5069C43.1826 50.4609 43.1595 50.4083 43.1595 50.3491V49.7676C43.1595 49.7347 43.1496 49.7117 43.1297 49.6986C43.1033 49.6854 43.0802 49.6953 43.0603 49.7281C42.558 50.3787 41.7549 50.704 40.651 50.704C39.719 50.704 38.9687 50.4806 38.4003 50.0337C37.8252 49.5869 37.5376 48.9231 37.5376 48.0426C37.5376 47.1357 37.8615 46.4293 38.5093 45.9233C39.1505 45.4239 40.066 45.1741 41.2558 45.1741H43.0702C43.1297 45.1741 43.1595 45.1446 43.1595 45.0854V44.6911C43.1595 44.3034 43.0405 43.9979 42.8025 43.7744C42.5646 43.5576 42.2076 43.4491 41.7317 43.4491C41.3682 43.4491 41.0641 43.5149 40.8195 43.6463C40.575 43.7777 40.4163 43.9617 40.3436 44.1983C40.3106 44.3297 40.2345 44.3889 40.1156 44.3757L37.9541 44.0899C37.8087 44.0636 37.7426 44.011 37.7558 43.9321C37.802 43.4327 38.0003 42.9826 38.3507 42.5817C38.701 42.1809 39.167 41.8687 39.7487 41.6453C40.3238 41.4153 40.9683 41.3003 41.6821 41.3003ZM41.3252 48.841C41.8342 48.841 42.2671 48.7063 42.6241 48.4369C42.981 48.1674 43.1595 47.8191 43.1595 47.392V46.7513C43.1595 46.6921 43.1297 46.6626 43.0702 46.6626H41.7912C41.2558 46.6626 40.8361 46.7644 40.532 46.9681C40.2279 47.1653 40.0759 47.4479 40.0759 47.8159C40.0759 48.1379 40.1883 48.3876 40.413 48.565C40.6378 48.749 40.9418 48.841 41.3252 48.841ZM53.1439 38.3629C53.1439 38.3037 53.1638 38.2511 53.2034 38.2051C53.2431 38.1657 53.2927 38.146 53.3522 38.146H55.4442C55.5037 38.146 55.5533 38.1657 55.593 38.2051C55.6326 38.2511 55.6525 38.3037 55.6525 38.3629V50.3491C55.6525 50.4083 55.6326 50.4609 55.593 50.5069C55.5533 50.5463 55.5037 50.566 55.4442 50.566H53.3522C53.2927 50.566 53.2431 50.5463 53.2034 50.5069C53.1638 50.4609 53.1439 50.4083 53.1439 50.3491V49.7676C53.1439 49.7347 53.1307 49.715 53.1043 49.7084C53.0778 49.7019 53.0547 49.7084 53.0349 49.7281C52.5325 50.3787 51.8484 50.704 50.9825 50.704C50.1496 50.704 49.4324 50.474 48.8309 50.014C48.2294 49.554 47.7964 48.9231 47.532 48.1214C47.3337 47.5037 47.2346 46.7874 47.2346 45.9726C47.2346 45.1314 47.3403 44.3987 47.5519 43.7744C47.8295 43.0121 48.2624 42.4109 48.8507 41.9706C49.439 41.5237 50.1661 41.3003 51.032 41.3003C51.8913 41.3003 52.559 41.596 53.0349 42.1874C53.0547 42.2269 53.0778 42.24 53.1043 42.2269C53.1307 42.2137 53.1439 42.1907 53.1439 42.1579V38.3629ZM52.7672 47.7961C53.0051 47.3624 53.1241 46.7644 53.1241 46.0021C53.1241 45.2136 52.9919 44.5926 52.7275 44.1391C52.4565 43.6791 52.0599 43.4491 51.5377 43.4491C50.9758 43.4491 50.5528 43.6791 50.2686 44.1391C49.9711 44.6057 49.8224 45.2333 49.8224 46.0219C49.8224 46.7316 49.948 47.323 50.1992 47.7961C50.4966 48.3087 50.9362 48.565 51.5179 48.565C52.0533 48.565 52.4697 48.3087 52.7672 47.7961ZM65.6667 45.0657C65.7394 45.5126 65.7625 46.0153 65.7361 46.5739C65.7295 46.7184 65.6534 46.7907 65.508 46.7907H59.9952C59.9225 46.7907 59.8994 46.8203 59.9258 46.8794C59.9589 47.116 60.0217 47.3526 60.1142 47.5891C60.4249 48.2463 61.0562 48.5749 62.008 48.5749C62.7682 48.5683 63.3697 48.2627 63.8125 47.6581C63.8588 47.5859 63.9117 47.5497 63.9712 47.5497C64.0108 47.5497 64.0538 47.5727 64.1001 47.6187L65.3791 48.8804C65.4386 48.9396 65.4684 48.9921 65.4684 49.0381C65.4684 49.0644 65.4452 49.1137 65.399 49.186C65.009 49.6657 64.5033 50.0403 63.882 50.3097C63.2672 50.5726 62.5897 50.704 61.8494 50.704C60.8248 50.704 59.9589 50.474 59.2516 50.014C58.5443 49.554 58.0354 48.91 57.7247 48.082C57.4735 47.4906 57.3479 46.7151 57.3479 45.7557C57.3479 45.1051 57.4372 44.5334 57.6156 44.0406C57.8932 43.1994 58.3725 42.5291 59.0533 42.0297C59.7408 41.5369 60.5538 41.2904 61.4924 41.2904C62.6822 41.2904 63.6374 41.6321 64.3579 42.3156C65.0784 42.999 65.5146 43.9157 65.6667 45.0657ZM61.5122 43.4491C60.7587 43.4491 60.2629 43.7974 60.025 44.494C59.9787 44.6517 59.9391 44.8423 59.906 45.0657C59.906 45.1249 59.9358 45.1544 59.9952 45.1544H63.0788C63.1515 45.1544 63.1747 45.1249 63.1482 45.0657C63.0887 44.724 63.059 44.5597 63.059 44.5729C62.9532 44.218 62.7682 43.942 62.5037 43.7449C62.2327 43.5477 61.9022 43.4491 61.5122 43.4491ZM71.8636 41.32C72.2932 41.32 72.6303 41.4021 72.8749 41.5664C72.9741 41.619 73.0104 41.7077 72.984 41.8326L72.6072 43.8631C72.6006 44.0011 72.518 44.0406 72.3593 43.9814C72.1808 43.9223 71.9726 43.8927 71.7347 43.8927C71.6421 43.8927 71.5132 43.9059 71.348 43.9321C70.9183 43.965 70.5548 44.1194 70.2573 44.3954C69.9599 44.678 69.8111 45.0493 69.8111 45.5093V50.3491C69.8111 50.4083 69.7913 50.4609 69.7517 50.5069C69.7054 50.5463 69.6525 50.566 69.593 50.566H67.5109C67.4514 50.566 67.3985 50.5463 67.3522 50.5069C67.3126 50.4609 67.2927 50.4083 67.2927 50.3491V41.6551C67.2927 41.596 67.3126 41.5467 67.3522 41.5073C67.3985 41.4679 67.4514 41.4481 67.5109 41.4481H69.593C69.6525 41.4481 69.7054 41.4679 69.7517 41.5073C69.7913 41.5467 69.8111 41.596 69.8111 41.6551V42.3353C69.8111 42.3681 69.8211 42.3911 69.8409 42.4043C69.8673 42.4174 69.8872 42.4109 69.9004 42.3846C70.3895 41.6749 71.0439 41.32 71.8636 41.32Z" fill="#252530"/>
<path d="M39.7191 59.7146C39.7191 59.7475 39.7059 59.7737 39.6795 59.7935C39.6596 59.8197 39.6332 59.8329 39.6001 59.8329H36.229C36.196 59.8329 36.1794 59.8493 36.1794 59.8822V61.7255C36.1794 61.7583 36.196 61.7747 36.229 61.7747H38.4996C38.5326 61.7747 38.5624 61.7846 38.5888 61.8043C38.6086 61.8306 38.6185 61.8602 38.6185 61.893V62.6422C38.6185 62.675 38.6086 62.7046 38.5888 62.7309C38.5624 62.7506 38.5326 62.7605 38.4996 62.7605H36.229C36.196 62.7605 36.1794 62.7769 36.1794 62.8097V65.6289C36.1794 65.6617 36.1662 65.688 36.1398 65.7077C36.12 65.734 36.0935 65.7472 36.0605 65.7472H35.1483C35.1152 65.7472 35.0888 65.734 35.069 65.7077C35.0425 65.688 35.0293 65.6617 35.0293 65.6289V58.9654C35.0293 58.9326 35.0425 58.9063 35.069 58.8866C35.0888 58.8603 35.1152 58.8472 35.1483 58.8472H39.6001C39.6332 58.8472 39.6596 58.8603 39.6795 58.8866C39.7059 58.9063 39.7191 58.9326 39.7191 58.9654V59.7146ZM44.2404 65.7472C44.1743 65.7472 44.1313 65.7143 44.1115 65.6486L43.7843 64.5939C43.7711 64.5676 43.7545 64.5545 43.7347 64.5545H41.1171C41.0973 64.5545 41.0808 64.5676 41.0676 64.5939L40.7404 65.6486C40.7205 65.7143 40.6776 65.7472 40.6115 65.7472H39.62C39.5803 65.7472 39.5506 65.734 39.5307 65.7077C39.5109 65.688 39.5076 65.6552 39.5208 65.6092L41.6724 58.9457C41.6922 58.88 41.7352 58.8472 41.8013 58.8472H43.0407C43.1068 58.8472 43.1497 58.88 43.1696 58.9457L45.331 65.6092C45.3376 65.6223 45.341 65.6387 45.341 65.6585C45.341 65.7176 45.3046 65.7472 45.2319 65.7472H44.2404ZM41.3749 63.5983C41.3683 63.6377 41.3815 63.6575 41.4146 63.6575H43.4274C43.467 63.6575 43.4802 63.6377 43.467 63.5983L42.4458 60.2962C42.4391 60.2699 42.4292 60.2567 42.416 60.2567C42.4028 60.2567 42.3929 60.2699 42.3863 60.2962L41.3749 63.5983ZM46.4812 65.7472C46.4481 65.7472 46.4217 65.734 46.4019 65.7077C46.3754 65.688 46.3622 65.6617 46.3622 65.6289V58.9654C46.3622 58.9326 46.3754 58.9063 46.4019 58.8866C46.4217 58.8603 46.4481 58.8472 46.4812 58.8472H47.3934C47.4264 58.8472 47.4562 58.8603 47.4826 58.8866C47.5024 58.9063 47.5124 58.9326 47.5124 58.9654V64.7122C47.5124 64.745 47.5289 64.7615 47.5619 64.7615H50.8835C50.9165 64.7615 50.943 64.7746 50.9628 64.8009C50.9892 64.8206 51.0025 64.8469 51.0025 64.8797V65.6289C51.0025 65.6617 50.9892 65.688 50.9628 65.7077C50.943 65.734 50.9165 65.7472 50.8835 65.7472H46.4812ZM52.1427 65.7472C52.1096 65.7472 52.0832 65.734 52.0634 65.7077C52.0369 65.688 52.0237 65.6617 52.0237 65.6289V58.9654C52.0237 58.9326 52.0369 58.9063 52.0634 58.8866C52.0832 58.8603 52.1096 58.8472 52.1427 58.8472H53.0549C53.0879 58.8472 53.1177 58.8603 53.1441 58.8866C53.1639 58.9063 53.1738 58.9326 53.1738 58.9654V64.7122C53.1738 64.745 53.1904 64.7615 53.2234 64.7615H56.545C56.578 64.7615 56.6078 64.7746 56.6342 64.8009C56.654 64.8206 56.6639 64.8469 56.6639 64.8797V65.6289C56.6639 65.6617 56.654 65.688 56.6342 65.7077C56.6078 65.734 56.578 65.7472 56.545 65.7472H52.1427Z" fill="white"/>
<path d="M33.0866 83.5483C33.0668 83.5681 33.0602 83.5878 33.0668 83.6075C33.08 83.6272 33.0998 83.6371 33.1263 83.6371H37.0229C37.0692 83.6371 37.1088 83.6535 37.1419 83.6863C37.1815 83.7192 37.2014 83.7586 37.2014 83.8046V85.1945C37.2014 85.2405 37.1815 85.2799 37.1419 85.3128C37.1088 85.3456 37.0692 85.3621 37.0229 85.3621H30.5583C30.5054 85.3621 30.4624 85.3456 30.4294 85.3128C30.3963 85.2799 30.3798 85.2405 30.3798 85.1945V83.8736C30.3798 83.7882 30.4095 83.7159 30.469 83.6568C30.9384 83.2033 31.4176 82.7072 31.9067 82.1683C32.3959 81.6295 32.7032 81.2943 32.8288 81.1629C33.0932 80.8475 33.3642 80.5452 33.6419 80.2561C34.5144 79.2966 34.9506 78.5836 34.9506 78.1171C34.9506 77.7819 34.8317 77.5059 34.5937 77.2891C34.3557 77.0788 34.0451 76.9736 33.6617 76.9736C33.2783 76.9736 32.9676 77.0788 32.7297 77.2891C32.4851 77.5059 32.3628 77.7918 32.3628 78.1466V78.5015C32.3628 78.5475 32.3463 78.5869 32.3132 78.6198C32.2802 78.6526 32.2405 78.6691 32.1943 78.6691H30.4988C30.4525 78.6691 30.4129 78.6526 30.3798 78.6198C30.3401 78.5869 30.3203 78.5475 30.3203 78.5015V77.8312C30.3534 77.3186 30.5186 76.8619 30.8161 76.4611C31.1135 76.0668 31.5068 75.7645 31.996 75.5542C32.4917 75.3439 33.047 75.2388 33.6617 75.2388C34.3425 75.2388 34.9341 75.3669 35.4365 75.6232C35.9388 75.8729 36.3255 76.2113 36.5965 76.6385C36.8742 77.0722 37.013 77.5486 37.013 78.0678C37.013 78.4686 36.9105 78.8793 36.7056 79.2999C36.5073 79.7205 36.2065 80.1739 35.8033 80.6602C35.5059 81.0282 35.1853 81.3962 34.8416 81.7642C34.4979 82.1256 33.9856 82.6481 33.3047 83.3315L33.0866 83.5483ZM41.8714 85.5198C40.8137 85.5198 39.9809 85.2273 39.3728 84.6425C38.758 84.0576 38.4507 83.2592 38.4507 82.2472V78.4719C38.4507 77.4796 38.758 76.6943 39.3728 76.1161C39.9809 75.5312 40.8137 75.2388 41.8714 75.2388C42.9223 75.2388 43.7585 75.5312 44.3799 76.1161C44.9946 76.6943 45.302 77.4796 45.302 78.4719V82.2472C45.302 83.2592 44.9946 84.0576 44.3799 84.6425C43.7585 85.2273 42.9223 85.5198 41.8714 85.5198ZM41.8714 83.7948C42.301 83.7948 42.6414 83.6633 42.8926 83.4005C43.1504 83.1376 43.2793 82.7861 43.2793 82.3458V78.4128C43.2793 77.9791 43.1504 77.6308 42.8926 77.3679C42.6414 77.1051 42.301 76.9736 41.8714 76.9736C41.4483 76.9736 41.1112 77.1051 40.86 77.3679C40.6022 77.6308 40.4733 77.9791 40.4733 78.4128V82.3458C40.4733 82.7861 40.6022 83.1376 40.86 83.4005C41.1112 83.6633 41.4483 83.7948 41.8714 83.7948ZM49.3275 83.5483C49.3076 83.5681 49.3043 83.5878 49.3176 83.6075C49.3242 83.6272 49.344 83.6371 49.377 83.6371H53.2737C53.3199 83.6371 53.3596 83.6535 53.3926 83.6863C53.4257 83.7192 53.4422 83.7586 53.4422 83.8046V85.1945C53.4422 85.2405 53.4257 85.2799 53.3926 85.3128C53.3596 85.3456 53.3199 85.3621 53.2737 85.3621H46.7991C46.7529 85.3621 46.7132 85.3456 46.6801 85.3128C46.6471 85.2799 46.6306 85.2405 46.6306 85.1945V83.8736C46.6306 83.7882 46.657 83.7159 46.7099 83.6568C47.1858 83.2033 47.665 82.7072 48.1476 82.1683C48.6367 81.6295 48.9441 81.2943 49.0697 81.1629C49.3407 80.8475 49.615 80.5452 49.8926 80.2561C50.7652 79.2966 51.2014 78.5836 51.2014 78.1171C51.2014 77.7819 51.0824 77.5059 50.8445 77.2891C50.5999 77.0788 50.2859 76.9736 49.9025 76.9736C49.5192 76.9736 49.2085 77.0788 48.9705 77.2891C48.7326 77.5059 48.6136 77.7918 48.6136 78.1466V78.5015C48.6136 78.5475 48.5971 78.5869 48.564 78.6198C48.531 78.6526 48.488 78.6691 48.4351 78.6691H46.7396C46.6934 78.6691 46.6537 78.6526 46.6207 78.6198C46.5876 78.5869 46.5711 78.5475 46.5711 78.5015V77.8312C46.5975 77.3186 46.7595 76.8619 47.0569 76.4611C47.3544 76.0668 47.751 75.7645 48.2467 75.5542C48.7425 75.3439 49.2944 75.2388 49.9025 75.2388C50.5834 75.2388 51.175 75.3669 51.6773 75.6232C52.1863 75.8729 52.5763 76.2113 52.8473 76.6385C53.1183 77.0722 53.2538 77.5486 53.2538 78.0678C53.2538 78.4686 53.1547 78.8793 52.9564 79.2999C52.7515 79.7205 52.4474 80.1739 52.0442 80.6602C51.7467 81.0282 51.4262 81.3962 51.0824 81.7642C50.7387 82.1256 50.2264 82.6481 49.5456 83.3315L49.3275 83.5483ZM57.3785 83.5483C57.3587 83.5681 57.3554 83.5878 57.3686 83.6075C57.3752 83.6272 57.395 83.6371 57.4281 83.6371H61.3247C61.371 83.6371 61.4106 83.6535 61.4437 83.6863C61.4767 83.7192 61.4932 83.7586 61.4932 83.8046V85.1945C61.4932 85.2405 61.4767 85.2799 61.4437 85.3128C61.4106 85.3456 61.371 85.3621 61.3247 85.3621H54.8502C54.8039 85.3621 54.7642 85.3456 54.7312 85.3128C54.6981 85.2799 54.6816 85.2405 54.6816 85.1945V83.8736C54.6816 83.7882 54.708 83.7159 54.7609 83.6568C55.2368 83.2033 55.7161 82.7072 56.1986 82.1683C56.6877 81.6295 56.9951 81.2943 57.1207 81.1629C57.3917 80.8475 57.666 80.5452 57.9436 80.2561C58.8162 79.2966 59.2524 78.5836 59.2524 78.1171C59.2524 77.7819 59.1335 77.5059 58.8955 77.2891C58.6509 77.0788 58.3369 76.9736 57.9536 76.9736C57.5702 76.9736 57.2595 77.0788 57.0215 77.2891C56.7836 77.5059 56.6646 77.7918 56.6646 78.1466V78.5015C56.6646 78.5475 56.6481 78.5869 56.615 78.6198C56.582 78.6526 56.539 78.6691 56.4861 78.6691H54.7907C54.7444 78.6691 54.7047 78.6526 54.6717 78.6198C54.6386 78.5869 54.6221 78.5475 54.6221 78.5015V77.8312C54.6485 77.3186 54.8105 76.8619 55.1079 76.4611C55.4054 76.0668 55.802 75.7645 56.2978 75.5542C56.7935 75.3439 57.3454 75.2388 57.9536 75.2388C58.6344 75.2388 59.226 75.3669 59.7284 75.6232C60.2373 75.8729 60.6273 76.2113 60.8983 76.6385C61.1693 77.0722 61.3049 77.5486 61.3049 78.0678C61.3049 78.4686 61.2057 78.8793 61.0074 79.2999C60.8025 79.7205 60.4984 80.1739 60.0952 80.6602C59.7978 81.0282 59.4772 81.3962 59.1335 81.7642C58.7897 82.1256 58.2775 82.6481 57.5966 83.3315L57.3785 83.5483Z" fill="#252530"/>
</svg>
