<svg width="93" height="103" viewBox="0 0 93 103" fill="none" xmlns="http://www.w3.org/2000/svg">
<path d="M7.63281 80.1742L46.7972 100.02L84.4744 80.1742V2.56641H7.63281V80.1742Z" fill="white"/>
<path d="M85.2679 2.8623L6.83984 81.5562L47.4915 101.6L85.2679 82.3461V2.8623Z" fill="#F2F3F2"/>
<path d="M5.05664 28.4364V81.8535L6.44475 82.5446L45.6092 102.391L46.799 102.983L47.9888 102.391L85.7651 82.5446L87.1532 81.8535V0H5.05664V28.4364ZM7.63455 80.3724V2.56718H84.5753V80.3724L46.799 100.219L7.63455 80.3724Z" fill="#DCDEDC"/>
<path d="M46.105 3.85077C46.5016 3.85077 46.8982 3.85077 47.2948 3.9495L46.105 6.22047C44.3202 6.12173 42.7338 7.50406 42.6347 9.28134C42.5355 11.0586 43.9236 12.6384 45.7084 12.7372H46.105C46.8982 12.7372 47.6914 12.4409 48.2863 11.9473L49.5752 14.1195C48.5837 14.8106 47.3939 15.2056 46.105 15.2056C42.9321 15.3043 40.2551 12.9346 40.1559 9.77502C40.0568 6.61542 42.4364 3.94951 45.6092 3.85077H46.105ZM50.1701 8.68891L51.6574 11.1574L50.1701 13.5271L48.782 11.1574H45.9067L47.3939 8.68891H50.1701ZM47.7905 7.80027C47.7905 7.40532 47.8897 7.01037 48.088 6.71416C48.2863 6.41795 48.6829 6.12173 48.9803 5.92426L49.1786 5.82552C49.5752 5.62804 49.6744 5.52931 49.6744 5.33183C49.6744 5.13436 49.3769 4.93688 49.1786 4.93688C48.782 4.93688 48.4846 5.13436 48.2863 5.52931L47.7905 5.03562C47.8897 4.83814 48.088 4.64067 48.2863 4.44319C48.5837 4.24572 48.8812 4.24572 49.1786 4.24572C49.4761 4.24572 49.8727 4.34446 50.071 4.54193C50.2693 4.73941 50.4676 5.03562 50.4676 5.33183C50.4676 5.82552 50.1701 6.22047 49.5752 6.41794L49.2778 6.61542C48.9803 6.8129 48.782 6.91163 48.6829 7.20785H50.4676V7.89901L47.7905 7.80027ZM46.105 20.1425L55.5243 14.8106V0H36.5865V14.7119L46.105 20.1425ZM89.0371 55.0956H3.17281L0 62.0072L3.17281 68.9189H89.0371L92.1108 62.0072L89.0371 55.0956Z" fill="#FF492C"/>
<path d="M16.7553 40.2751C17.4097 40.2751 17.9848 40.4068 18.4806 40.6701C18.9763 40.9334 19.3597 41.3119 19.6307 41.8055C19.9017 42.2927 20.0372 42.8522 20.0372 43.4841C20.0372 44.1094 19.8984 44.6591 19.6208 45.133C19.3366 45.6004 18.94 45.9657 18.431 46.229C17.922 46.4923 17.3337 46.6239 16.6661 46.6239H14.5542C14.5079 46.6239 14.4848 46.6503 14.4848 46.7029V50.4747C14.4848 50.5274 14.465 50.5702 14.4253 50.6031C14.3923 50.636 14.3493 50.6524 14.2964 50.6524H12.5613C12.5084 50.6524 12.4654 50.636 12.4324 50.6031C12.3993 50.5702 12.3828 50.5274 12.3828 50.4747V40.4528C12.3828 40.4002 12.3993 40.3574 12.4324 40.3245C12.4654 40.2916 12.5084 40.2751 12.5613 40.2751H16.7553ZM16.4381 44.9553C16.9008 44.9553 17.2676 44.8236 17.5386 44.5603C17.8163 44.297 17.9551 43.9547 17.9551 43.5335C17.9551 43.0924 17.8163 42.7403 17.5386 42.477C17.2676 42.2071 16.9008 42.0721 16.4381 42.0721H14.5542C14.5079 42.0721 14.4848 42.0985 14.4848 42.1511V44.8763C14.4848 44.9289 14.5079 44.9553 14.5542 44.9553H16.4381ZM27.5429 46.0611C27.5958 46.4363 27.6123 46.8543 27.5925 47.3151C27.5859 47.4402 27.5231 47.5027 27.4041 47.5027H22.8134C22.7539 47.5027 22.7308 47.5257 22.744 47.5718C22.7771 47.7693 22.8333 47.9668 22.9126 48.1642C23.1704 48.7172 23.6959 48.9936 24.4891 48.9936C25.1236 48.9871 25.6227 48.7303 25.9862 48.2235C26.0325 48.1642 26.0788 48.1346 26.1251 48.1346C26.1515 48.1346 26.1846 48.1544 26.2242 48.1939L27.295 49.2405C27.3479 49.2931 27.3744 49.3392 27.3744 49.3787C27.3744 49.3985 27.3545 49.438 27.3149 49.4972C26.9844 49.9053 26.5646 50.218 26.0557 50.4352C25.5335 50.659 24.965 50.7709 24.3503 50.7709C23.5042 50.7709 22.7837 50.58 22.1888 50.1982C21.6005 49.8099 21.1775 49.2701 20.9197 48.5789C20.7081 48.0853 20.6024 47.4402 20.6024 46.6437C20.6024 46.0973 20.6784 45.6168 20.8304 45.2021C21.0618 44.5044 21.4617 43.9482 22.0301 43.5335C22.5986 43.1188 23.2728 42.9114 24.0528 42.9114C25.0443 42.9114 25.8408 43.1977 26.4423 43.7704C27.0439 44.3431 27.4107 45.1067 27.5429 46.0611ZM24.0726 44.7183C23.4447 44.7183 23.0316 45.0079 22.8333 45.5872C22.7936 45.7188 22.7606 45.8768 22.7341 46.0611C22.7341 46.1072 22.7606 46.1302 22.8134 46.1302H25.3814C25.4409 46.1302 25.4608 46.1072 25.4409 46.0611C25.388 45.7781 25.3616 45.6399 25.3616 45.6464C25.2757 45.3502 25.1203 45.1198 24.8956 44.9553C24.6775 44.7973 24.4031 44.7183 24.0726 44.7183ZM32.6987 42.941C33.0557 42.941 33.3399 43.0101 33.5514 43.1484C33.6241 43.1879 33.6506 43.2603 33.6307 43.3656L33.3234 45.054C33.3168 45.1725 33.2474 45.2087 33.1152 45.1626C32.9631 45.11 32.7913 45.0836 32.5996 45.0836C32.5203 45.0836 32.4079 45.0935 32.2625 45.1133C31.9121 45.1462 31.6114 45.2778 31.3602 45.5082C31.1156 45.7386 30.9933 46.048 30.9933 46.4363V50.4747C30.9933 50.5274 30.9735 50.5702 30.9339 50.6031C30.9008 50.636 30.8611 50.6524 30.8149 50.6524H29.0698C29.0236 50.6524 28.9806 50.636 28.9409 50.6031C28.9079 50.5702 28.8914 50.5274 28.8914 50.4747V43.2175C28.8914 43.1714 28.9079 43.1286 28.9409 43.0891C28.9806 43.0562 29.0236 43.0398 29.0698 43.0398H30.8149C30.8611 43.0398 30.9008 43.0562 30.9339 43.0891C30.9735 43.1286 30.9933 43.1714 30.9933 43.2175V43.7803C30.9933 43.8066 31.0033 43.8264 31.0231 43.8395C31.0363 43.8527 31.0495 43.8461 31.0627 43.8198C31.4726 43.2339 32.0179 42.941 32.6987 42.941ZM39.0344 43.0299C39.0873 43.0299 39.1303 43.0463 39.1633 43.0793C39.1964 43.1122 39.2129 43.155 39.2129 43.2076V44.6097C39.2129 44.6624 39.1964 44.7051 39.1633 44.738C39.1303 44.771 39.0873 44.7874 39.0344 44.7874H37.5968C37.5439 44.7874 37.5174 44.8105 37.5174 44.8565V50.4747C37.5174 50.5274 37.5009 50.5702 37.4679 50.6031C37.4348 50.636 37.3919 50.6524 37.339 50.6524H35.6038C35.551 50.6524 35.508 50.636 35.4749 50.6031C35.4419 50.5702 35.4254 50.5274 35.4254 50.4747V44.8565C35.4254 44.8105 35.3989 44.7874 35.346 44.7874H34.4735C34.4206 44.7874 34.3777 44.771 34.3446 44.738C34.3116 44.7051 34.2951 44.6624 34.2951 44.6097V43.2076C34.2951 43.155 34.3116 43.1122 34.3446 43.0793C34.3777 43.0463 34.4206 43.0299 34.4735 43.0299H35.346C35.3989 43.0299 35.4254 43.0036 35.4254 42.9509V42.6251C35.4254 42.0129 35.5179 41.5357 35.703 41.1934C35.8947 40.8577 36.1987 40.6174 36.6152 40.4726C37.0382 40.3278 37.6232 40.2652 38.3701 40.285H38.9353C38.9816 40.285 39.0212 40.3014 39.0543 40.3344C39.0939 40.3738 39.1138 40.4166 39.1138 40.4627V41.6574C39.1138 41.7101 39.0939 41.7529 39.0543 41.7858C39.0212 41.8253 38.9816 41.845 38.9353 41.845H38.4395C38.0958 41.8516 37.8546 41.9207 37.7157 42.0524C37.5835 42.1906 37.5174 42.4375 37.5174 42.7929V42.9509C37.5174 43.0036 37.5439 43.0299 37.5968 43.0299H39.0344ZM43.3475 50.7709C42.5146 50.7709 41.8007 50.5537 41.2058 50.1192C40.6109 49.6848 40.2044 49.0924 39.9863 48.342C39.8475 47.8812 39.7781 47.3776 39.7781 46.8313C39.7781 46.252 39.8475 45.7287 39.9863 45.2614C40.2176 44.5307 40.6308 43.958 41.2257 43.5433C41.8206 43.1286 42.5345 42.9213 43.3673 42.9213C44.1737 42.9213 44.8678 43.1253 45.4495 43.5335C46.0179 43.9482 46.4212 44.5208 46.6591 45.2515C46.8244 45.7452 46.907 46.2619 46.907 46.8017C46.907 47.3348 46.8376 47.8351 46.6988 48.3025C46.4806 49.0726 46.0741 49.6749 45.4792 50.1094C44.8909 50.5504 44.1803 50.7709 43.3475 50.7709ZM43.3475 48.9838C43.6714 48.9838 43.949 48.885 44.1803 48.6876C44.4117 48.4901 44.577 48.2169 44.6761 47.868C44.7488 47.5521 44.7852 47.2065 44.7852 46.8313C44.7852 46.4166 44.7488 46.0677 44.6761 45.7847C44.5637 45.449 44.3952 45.1857 44.1704 44.9948C43.9391 44.8105 43.6582 44.7183 43.3277 44.7183C42.9972 44.7183 42.7195 44.8105 42.4948 44.9948C42.2701 45.1857 42.1081 45.449 42.009 45.7847C41.9296 46.0151 41.89 46.3639 41.89 46.8313C41.89 47.2789 41.9263 47.6245 41.999 47.868C42.0982 48.2169 42.2634 48.4901 42.4948 48.6876C42.7261 48.885 43.0104 48.9838 43.3475 48.9838ZM52.0628 42.941C52.4198 42.941 52.704 43.0101 52.9155 43.1484C52.9948 43.1879 53.0213 43.2603 52.9948 43.3656L52.6875 45.054C52.6808 45.1725 52.6114 45.2087 52.4792 45.1626C52.3272 45.11 52.1553 45.0836 51.9637 45.0836C51.8843 45.0836 51.7753 45.0935 51.6365 45.1133C51.2795 45.1462 50.9755 45.2778 50.7243 45.5082C50.4797 45.7386 50.3574 46.048 50.3574 46.4363V50.4747C50.3574 50.5274 50.3376 50.5702 50.2979 50.6031C50.2649 50.636 50.2219 50.6524 50.169 50.6524H48.4339C48.3876 50.6524 48.3447 50.636 48.305 50.6031C48.272 50.5702 48.2554 50.5274 48.2554 50.4747V43.2175C48.2554 43.1714 48.272 43.1286 48.305 43.0891C48.3447 43.0562 48.3876 43.0398 48.4339 43.0398H50.169C50.2219 43.0398 50.2649 43.0562 50.2979 43.0891C50.3376 43.1286 50.3574 43.1714 50.3574 43.2175V43.7803C50.3574 43.8066 50.364 43.8264 50.3773 43.8395C50.4037 43.8527 50.4202 43.8461 50.4268 43.8198C50.8366 43.2339 51.382 42.941 52.0628 42.941ZM62.424 42.9213C63.1974 42.9213 63.8022 43.1517 64.2385 43.6124C64.6747 44.0798 64.8929 44.7348 64.8929 45.5773V50.4747C64.8929 50.5274 64.8764 50.5702 64.8433 50.6031C64.8102 50.636 64.7706 50.6524 64.7243 50.6524H62.9793C62.933 50.6524 62.89 50.636 62.8504 50.6031C62.8173 50.5702 62.8008 50.5274 62.8008 50.4747V46.0315C62.8008 45.63 62.6983 45.3107 62.4934 45.0738C62.2819 44.8368 62.001 44.7183 61.6507 44.7183C61.3069 44.7183 61.026 44.8368 60.8079 45.0738C60.5897 45.3107 60.4807 45.6267 60.4807 46.0216V50.4747C60.4807 50.5274 60.4642 50.5702 60.4311 50.6031C60.3914 50.636 60.3485 50.6524 60.3022 50.6524H58.577C58.5241 50.6524 58.4811 50.636 58.4481 50.6031C58.415 50.5702 58.3985 50.5274 58.3985 50.4747V46.0315C58.3985 45.6366 58.2895 45.3173 58.0713 45.0738C57.8532 44.8368 57.569 44.7183 57.2186 44.7183C56.908 44.7183 56.6436 44.8105 56.4254 44.9948C56.2139 45.1857 56.0883 45.449 56.0487 45.7847V50.4747C56.0487 50.5274 56.0321 50.5702 55.9991 50.6031C55.9594 50.636 55.9165 50.6524 55.8702 50.6524H54.1351C54.0822 50.6524 54.0392 50.636 54.0062 50.6031C53.9731 50.5702 53.9566 50.5274 53.9566 50.4747V43.2175C53.9566 43.1714 53.9731 43.1286 54.0062 43.0891C54.0392 43.0562 54.0822 43.0398 54.1351 43.0398H55.8702C55.9165 43.0398 55.9594 43.0562 55.9991 43.0891C56.0321 43.1286 56.0487 43.1714 56.0487 43.2175V43.8C56.0487 43.8264 56.0586 43.8461 56.0784 43.8593C56.0982 43.8659 56.1181 43.8527 56.1379 43.8198C56.5477 43.2208 57.179 42.9213 58.0317 42.9213C58.5274 42.9213 58.9604 43.0266 59.3305 43.2372C59.7007 43.4413 59.9849 43.7375 60.1832 44.1259C60.2097 44.1851 60.246 44.1851 60.2923 44.1259C60.5038 43.7178 60.798 43.415 61.1747 43.2175C61.5449 43.02 61.9613 42.9213 62.424 42.9213ZM73.0926 46.0611C73.1521 46.4363 73.1719 46.8543 73.1521 47.3151C73.1389 47.4402 73.0728 47.5027 72.9538 47.5027H68.3631C68.3036 47.5027 68.2838 47.5257 68.3036 47.5718C68.3301 47.7693 68.383 47.9668 68.4623 48.1642C68.7201 48.7172 69.2456 48.9936 70.0388 48.9936C70.6733 48.9871 71.1757 48.7303 71.5459 48.2235C71.5855 48.1642 71.6285 48.1346 71.6748 48.1346C71.7078 48.1346 71.7442 48.1544 71.7838 48.1939L72.8546 49.2405C72.9009 49.2931 72.9241 49.3392 72.9241 49.3787C72.9241 49.3985 72.9042 49.438 72.8646 49.4972C72.5407 49.9053 72.1209 50.218 71.6054 50.4352C71.0898 50.659 70.5246 50.7709 69.9099 50.7709C69.0572 50.7709 68.3367 50.58 67.7484 50.1982C67.1535 49.8099 66.7272 49.2701 66.4694 48.5789C66.2645 48.0853 66.162 47.4402 66.162 46.6437C66.162 46.0973 66.2347 45.6168 66.3801 45.2021C66.6115 44.5044 67.0114 43.9482 67.5798 43.5335C68.1483 43.1188 68.8258 42.9114 69.6124 42.9114C70.6039 42.9114 71.4004 43.1977 72.002 43.7704C72.6035 44.3431 72.967 45.1067 73.0926 46.0611ZM69.6223 44.7183C69.001 44.7183 68.5912 45.0079 68.3929 45.5872C68.3532 45.7188 68.3169 45.8768 68.2838 46.0611C68.2838 46.1072 68.3103 46.1302 68.3631 46.1302H70.9311C70.9906 46.1302 71.0105 46.1072 70.9906 46.0611C70.9444 45.7781 70.9212 45.6399 70.9212 45.6464C70.8287 45.3502 70.6733 45.1198 70.4552 44.9553C70.2305 44.7973 69.9529 44.7183 69.6223 44.7183ZM78.2484 42.941C78.6054 42.941 78.8896 43.0101 79.1011 43.1484C79.1805 43.1879 79.2102 43.2603 79.1904 43.3656L78.883 45.054C78.8698 45.1725 78.7971 45.2087 78.6649 45.1626C78.5194 45.11 78.3476 45.0836 78.1493 45.0836C78.07 45.0836 77.9609 45.0935 77.8221 45.1133C77.4651 45.1462 77.1611 45.2778 76.9099 45.5082C76.6653 45.7386 76.543 46.048 76.543 46.4363V50.4747C76.543 50.5274 76.5265 50.5702 76.4935 50.6031C76.4538 50.636 76.4108 50.6524 76.3646 50.6524H74.6195C74.5733 50.6524 74.5336 50.636 74.5005 50.6031C74.4609 50.5702 74.4411 50.5274 74.4411 50.4747V43.2175C74.4411 43.1714 74.4609 43.1286 74.5005 43.0891C74.5336 43.0562 74.5733 43.0398 74.6195 43.0398H76.3646C76.4108 43.0398 76.4538 43.0562 76.4935 43.0891C76.5265 43.1286 76.543 43.1714 76.543 43.2175V43.7803C76.543 43.8066 76.553 43.8264 76.5728 43.8395C76.5926 43.8527 76.6091 43.8461 76.6224 43.8198C77.0256 43.2339 77.5676 42.941 78.2484 42.941ZM37.339 25.6521C37.339 25.606 37.3555 25.5632 37.3885 25.5237C37.4216 25.4908 37.4613 25.4743 37.5075 25.4743H39.2526C39.2988 25.4743 39.3418 25.4908 39.3815 25.5237C39.4145 25.5632 39.431 25.606 39.431 25.6521V35.6641C39.431 35.7167 39.4145 35.7595 39.3815 35.7924C39.3418 35.8253 39.2988 35.8418 39.2526 35.8418H37.5075C37.4613 35.8418 37.4216 35.8253 37.3885 35.7924C37.3555 35.7595 37.339 35.7167 37.339 35.6641V31.5763C37.339 31.5303 37.3125 31.5072 37.2597 31.5072H33.9679C33.9216 31.5072 33.8985 31.5303 33.8985 31.5763V35.6641C33.8985 35.7167 33.8819 35.7595 33.8489 35.7924C33.8092 35.8253 33.7663 35.8418 33.72 35.8418H31.9749C31.9287 35.8418 31.889 35.8253 31.856 35.7924C31.8163 35.7595 31.7965 35.7167 31.7965 35.6641V25.6521C31.7965 25.606 31.8163 25.5632 31.856 25.5237C31.889 25.4908 31.9287 25.4743 31.9749 25.4743H33.72C33.7663 25.4743 33.8092 25.4908 33.8489 25.5237C33.8819 25.5632 33.8985 25.606 33.8985 25.6521V29.6312C33.8985 29.6839 33.9216 29.7102 33.9679 29.7102H37.2597C37.3125 29.7102 37.339 29.6839 37.339 29.6312V25.6521ZM42.1379 27.3701C41.8007 27.3701 41.5198 27.2582 41.2951 27.0344C41.0703 26.8172 40.958 26.5407 40.958 26.205C40.958 25.8561 41.067 25.5731 41.2852 25.3559C41.5033 25.1386 41.7875 25.03 42.1379 25.03C42.4882 25.03 42.7724 25.1386 42.9905 25.3559C43.2087 25.5731 43.3177 25.8561 43.3177 26.205C43.3177 26.5407 43.2054 26.8172 42.9806 27.0344C42.7559 27.2582 42.475 27.3701 42.1379 27.3701ZM41.2455 35.8418C41.1992 35.8418 41.1563 35.8253 41.1166 35.7924C41.0836 35.7595 41.067 35.7167 41.067 35.6641V28.397C41.067 28.3443 41.0836 28.3015 41.1166 28.2686C41.1563 28.2357 41.1992 28.2193 41.2455 28.2193H42.9905C43.0368 28.2193 43.0765 28.2357 43.1095 28.2686C43.1492 28.3015 43.169 28.3443 43.169 28.397V35.6641C43.169 35.7167 43.1492 35.7595 43.1095 35.7924C43.0765 35.8253 43.0368 35.8418 42.9905 35.8418H41.2455ZM49.4651 28.4069C49.4651 28.3608 49.4849 28.318 49.5246 28.2785C49.5576 28.2456 49.5973 28.2291 49.6435 28.2291H51.3886C51.4349 28.2291 51.4778 28.2456 51.5175 28.2785C51.5505 28.318 51.5671 28.3608 51.5671 28.4069V35.1605C51.5671 36.4507 51.1936 37.3722 50.4467 37.9252C49.6997 38.4847 48.7347 38.7644 47.5515 38.7644C47.2011 38.7644 46.8144 38.7381 46.3914 38.6854C46.2923 38.6723 46.2427 38.6097 46.2427 38.4978L46.3022 36.9674C46.3022 36.8358 46.3716 36.7798 46.5104 36.7996C46.8673 36.8588 47.1945 36.8884 47.492 36.8884C48.1265 36.8884 48.6157 36.7535 48.9594 36.4836C49.2965 36.2005 49.4651 35.7562 49.4651 35.1506C49.4651 35.1177 49.4552 35.098 49.4353 35.0914C49.4155 35.0848 49.3957 35.0947 49.3758 35.121C48.9991 35.5225 48.4504 35.7233 47.7299 35.7233C47.0822 35.7233 46.4906 35.5686 45.9551 35.2592C45.4131 34.9499 45.0264 34.4496 44.7951 33.7584C44.6497 33.3042 44.577 32.7151 44.577 31.991C44.577 31.2209 44.6662 30.5955 44.8447 30.115C45.0496 29.5094 45.3999 29.0256 45.8957 28.6636C46.3914 28.295 46.9698 28.1106 47.6308 28.1106C48.3909 28.1106 48.9726 28.3377 49.3758 28.7919C49.3957 28.8117 49.4155 28.8183 49.4353 28.8117C49.4552 28.8051 49.4651 28.7886 49.4651 28.7623V28.4069ZM49.3461 33.1858C49.4254 32.8961 49.4651 32.4913 49.4651 31.9713C49.4651 31.6685 49.4552 31.4348 49.4353 31.2702C49.4155 31.0991 49.3824 30.9378 49.3362 30.7864C49.2436 30.5231 49.0949 30.3092 48.89 30.1446C48.6851 29.9867 48.4273 29.9077 48.1166 29.9077C47.8192 29.9077 47.568 29.9867 47.3631 30.1446C47.1516 30.3092 46.9962 30.5231 46.8971 30.7864C46.7583 31.0826 46.6889 31.4842 46.6889 31.991C46.6889 32.544 46.7483 32.9389 46.8673 33.1759C46.9533 33.4458 47.1086 33.6597 47.3333 33.8177C47.5581 33.9822 47.8225 34.0645 48.1265 34.0645C48.4438 34.0645 48.7082 33.9822 48.9197 33.8177C49.1247 33.6597 49.2668 33.4491 49.3461 33.1858ZM57.06 28.1106C57.8532 28.1106 58.4911 28.3542 58.9736 28.8413C59.4561 29.3218 59.6974 29.9768 59.6974 30.8062V35.6641C59.6974 35.7167 59.6809 35.7595 59.6478 35.7924C59.6148 35.8253 59.5751 35.8418 59.5288 35.8418H57.7838C57.7375 35.8418 57.6945 35.8253 57.6549 35.7924C57.6218 35.7595 57.6053 35.7167 57.6053 35.6641V31.2308C57.6053 30.8424 57.4929 30.5231 57.2682 30.273C57.0501 30.0294 56.7559 29.9077 56.3858 29.9077C56.0222 29.9077 55.7281 30.0294 55.5033 30.273C55.2786 30.5231 55.1662 30.8424 55.1662 31.2308V35.6641C55.1662 35.7167 55.1497 35.7595 55.1166 35.7924C55.0836 35.8253 55.0406 35.8418 54.9877 35.8418H53.2526C53.1997 35.8418 53.1568 35.8253 53.1237 35.7924C53.0907 35.7595 53.0741 35.7167 53.0741 35.6641V25.6521C53.0741 25.606 53.0907 25.5632 53.1237 25.5237C53.1568 25.4908 53.1997 25.4743 53.2526 25.4743H54.9877C55.0406 25.4743 55.0836 25.4908 55.1166 25.5237C55.1497 25.5632 55.1662 25.606 55.1662 25.6521V28.9302C55.1662 28.9565 55.1761 28.9762 55.196 28.9894C55.2158 28.996 55.229 28.9894 55.2356 28.9697C55.6454 28.397 56.2536 28.1106 57.06 28.1106Z" fill="#252530"/>
<path d="M26.4033 59.0253C26.4364 58.9727 26.4826 58.9463 26.5421 58.9463H27.4543C27.4874 58.9463 27.5138 58.9595 27.5336 58.9858C27.5601 59.0056 27.5733 59.0319 27.5733 59.0648V65.7395C27.5733 65.7724 27.5601 65.7987 27.5336 65.8185C27.5138 65.8448 27.4874 65.858 27.4543 65.858H26.5421C26.5091 65.858 26.4793 65.8448 26.4529 65.8185C26.4331 65.7987 26.4232 65.7724 26.4232 65.7395V61.0297C26.4232 61.01 26.4165 60.9968 26.4033 60.9902C26.3835 60.9836 26.3703 60.9902 26.3637 61.01L25.1243 62.9057C25.0912 62.9584 25.045 62.9847 24.9855 62.9847H24.5294C24.4699 62.9847 24.4236 62.9584 24.3906 62.9057L23.1413 61.0198C23.1347 61.0001 23.1247 60.9935 23.1115 61.0001C23.0917 61.0067 23.0818 61.0198 23.0818 61.0396V65.7395C23.0818 65.7724 23.0686 65.7987 23.0421 65.8185C23.0223 65.8448 22.9959 65.858 22.9628 65.858H22.0506C22.0176 65.858 21.9911 65.8448 21.9713 65.8185C21.9449 65.7987 21.9316 65.7724 21.9316 65.7395V59.0648C21.9316 59.0319 21.9449 59.0056 21.9713 58.9858C21.9911 58.9595 22.0176 58.9463 22.0506 58.9463H22.9628C23.0223 58.9463 23.0686 58.9727 23.1016 59.0253L24.7178 61.4641C24.731 61.4773 24.7442 61.4839 24.7574 61.4839C24.7706 61.4839 24.7806 61.4773 24.7872 61.4641L26.4033 59.0253ZM29.5662 60.1213C29.3613 60.1213 29.1928 60.0555 29.0606 59.9238C28.9284 59.7922 28.8623 59.6243 28.8623 59.4203C28.8623 59.2162 28.9284 59.0484 29.0606 58.9167C29.1928 58.7851 29.3613 58.7192 29.5662 58.7192C29.7711 58.7192 29.9397 58.7851 30.0719 58.9167C30.2041 59.0484 30.2702 59.2162 30.2702 59.4203C30.2702 59.6243 30.2041 59.7922 30.0719 59.9238C29.9397 60.0555 29.7711 60.1213 29.5662 60.1213ZM29.0903 65.858C29.0573 65.858 29.0308 65.8448 29.011 65.8185C28.9845 65.7987 28.9713 65.7724 28.9713 65.7395V60.9211C28.9713 60.8882 28.9845 60.8618 29.011 60.8421C29.0308 60.8158 29.0573 60.8026 29.0903 60.8026H30.0025C30.0355 60.8026 30.0653 60.8158 30.0917 60.8421C30.1116 60.8618 30.1215 60.8882 30.1215 60.9211V65.7395C30.1215 65.7724 30.1116 65.7987 30.0917 65.8185C30.0653 65.8448 30.0355 65.858 30.0025 65.858H29.0903ZM34.5832 59.0648C34.5832 59.0319 34.5965 59.0056 34.6229 58.9858C34.6427 58.9595 34.6692 58.9463 34.7022 58.9463H35.6144C35.6475 58.9463 35.6772 58.9595 35.7036 58.9858C35.7235 59.0056 35.7334 59.0319 35.7334 59.0648V65.7395C35.7334 65.7724 35.7235 65.7987 35.7036 65.8185C35.6772 65.8448 35.6475 65.858 35.6144 65.858H34.7022C34.6692 65.858 34.6427 65.8448 34.6229 65.8185C34.5965 65.7987 34.5832 65.7724 34.5832 65.7395V65.4433C34.5832 65.4235 34.5766 65.4104 34.5634 65.4038C34.5502 65.3972 34.537 65.4038 34.5237 65.4235C34.2329 65.7658 33.8528 65.937 33.3835 65.937C32.9142 65.937 32.5176 65.8152 32.1937 65.5716C31.8698 65.3281 31.6352 64.9891 31.4897 64.5546C31.3708 64.186 31.3113 63.7746 31.3113 63.3204C31.3113 62.8531 31.3675 62.4515 31.4798 62.1158C31.6252 61.6814 31.8599 61.3424 32.1838 61.0988C32.5077 60.8553 32.9142 60.7335 33.4033 60.7335C33.8594 60.7335 34.2329 60.898 34.5237 61.2272C34.537 61.2403 34.5502 61.2469 34.5634 61.2469C34.5766 61.2403 34.5832 61.2272 34.5832 61.2074V59.0648ZM34.3453 64.4756C34.4973 64.2058 34.5733 63.824 34.5733 63.3303C34.5733 62.8168 34.4907 62.4252 34.3254 62.1553C34.147 61.8657 33.8958 61.7209 33.5719 61.7209C33.2348 61.7209 32.9704 61.8591 32.7787 62.1356C32.5804 62.4252 32.4812 62.8267 32.4812 63.3402C32.4812 63.8009 32.5606 64.1794 32.7192 64.4756C32.9043 64.7916 33.1852 64.9496 33.562 64.9496C33.8991 64.9496 34.1602 64.7916 34.3453 64.4756ZM36.8042 63.3797C36.7712 63.3797 36.7447 63.3698 36.7249 63.35C36.6984 63.3237 36.6852 63.2941 36.6852 63.2612V62.5108C36.6852 62.4779 36.6984 62.4482 36.7249 62.4219C36.7447 62.4022 36.7712 62.3923 36.8042 62.3923H39.9274C39.9605 62.3923 39.9869 62.4022 40.0068 62.4219C40.0332 62.4482 40.0464 62.4779 40.0464 62.5108V63.2612C40.0464 63.2941 40.0332 63.3237 40.0068 63.35C39.9869 63.3698 39.9605 63.3797 39.9274 63.3797H36.8042ZM45.5691 59.0253C45.6022 58.9727 45.6484 58.9463 45.7079 58.9463H46.6201C46.6531 58.9463 46.6829 58.9595 46.7093 58.9858C46.7292 59.0056 46.7391 59.0319 46.7391 59.0648V65.7395C46.7391 65.7724 46.7292 65.7987 46.7093 65.8185C46.6829 65.8448 46.6531 65.858 46.6201 65.858H45.7079C45.6749 65.858 45.6484 65.8448 45.6286 65.8185C45.6022 65.7987 45.5889 65.7724 45.5889 65.7395V61.0297C45.5889 61.01 45.5823 60.9968 45.5691 60.9902C45.5493 60.9836 45.5361 60.9902 45.5294 61.01L44.2901 62.9057C44.257 62.9584 44.2107 62.9847 44.1513 62.9847H43.6952C43.6357 62.9847 43.5894 62.9584 43.5564 62.9057L42.3071 61.0198C42.3004 61.0001 42.2905 60.9935 42.2773 61.0001C42.2575 61.0067 42.2476 61.0198 42.2476 61.0396V65.7395C42.2476 65.7724 42.2376 65.7987 42.2178 65.8185C42.1914 65.8448 42.1616 65.858 42.1286 65.858H41.2164C41.1834 65.858 41.1569 65.8448 41.1371 65.8185C41.1106 65.7987 41.0974 65.7724 41.0974 65.7395V59.0648C41.0974 59.0319 41.1106 59.0056 41.1371 58.9858C41.1569 58.9595 41.1834 58.9463 41.2164 58.9463H42.1286C42.1881 58.9463 42.2343 58.9727 42.2674 59.0253L43.8835 61.4641C43.8968 61.4773 43.91 61.4839 43.9232 61.4839C43.9364 61.4839 43.9463 61.4773 43.953 61.4641L45.5691 59.0253ZM50.011 60.7335C50.4275 60.7335 50.7943 60.8059 51.1116 60.9507C51.4289 61.0955 51.6735 61.293 51.8453 61.5431C52.0172 61.7999 52.1031 62.0895 52.1031 62.412V65.7395C52.1031 65.7724 52.0932 65.7987 52.0734 65.8185C52.0469 65.8448 52.0172 65.858 51.9841 65.858H51.072C51.0389 65.858 51.0125 65.8448 50.9926 65.8185C50.9662 65.7987 50.953 65.7724 50.953 65.7395V65.4235C50.953 65.4038 50.9464 65.3906 50.9331 65.384C50.9199 65.384 50.9067 65.3906 50.8935 65.4038C50.5696 65.7592 50.1003 65.937 49.4855 65.937C48.9898 65.937 48.5833 65.8119 48.266 65.5618C47.9421 65.3116 47.7802 64.9397 47.7802 64.446C47.7802 63.9326 47.9619 63.5311 48.3255 63.2414C48.6824 62.9584 49.1881 62.8169 49.8425 62.8169H50.9034C50.9364 62.8169 50.953 62.8004 50.953 62.7675V62.5305C50.953 62.2738 50.877 62.073 50.7249 61.9282C50.5729 61.79 50.3448 61.7209 50.0408 61.7209C49.7896 61.7209 49.588 61.7669 49.436 61.8591C49.2773 61.9447 49.1782 62.0664 49.1385 62.2244C49.1187 62.3034 49.0724 62.3363 48.9997 62.3232L48.0379 62.2047C48.0049 62.1981 47.9785 62.1882 47.9586 62.1751C47.9322 62.1553 47.9223 62.1323 47.9289 62.1059C47.9818 61.7044 48.1999 61.3753 48.5833 61.1186C48.9601 60.8618 49.436 60.7335 50.011 60.7335ZM49.7731 65.0286C50.097 65.0286 50.3746 64.943 50.6059 64.7719C50.8373 64.6007 50.953 64.3835 50.953 64.1202V63.6561C50.953 63.6232 50.9364 63.6068 50.9034 63.6068H50.0705C49.7202 63.6068 49.4459 63.6726 49.2476 63.8042C49.0427 63.9359 48.9402 64.1235 48.9402 64.367C48.9402 64.5777 49.0195 64.7389 49.1782 64.8508C49.3302 64.9693 49.5285 65.0286 49.7731 65.0286ZM55.613 60.7532C55.8246 60.7532 56.0096 60.796 56.1683 60.8816C56.2212 60.9079 56.241 60.9573 56.2278 61.0297L56.0592 61.9183C56.0526 61.9973 56.0063 62.0204 55.9204 61.9875C55.8213 61.9545 55.7056 61.9381 55.5734 61.9381C55.4875 61.9381 55.4214 61.9414 55.3751 61.948C55.0975 61.9611 54.8661 62.0566 54.681 62.2343C54.4959 62.4186 54.4034 62.6556 54.4034 62.9452V65.7395C54.4034 65.7724 54.3935 65.7987 54.3737 65.8185C54.3472 65.8448 54.3175 65.858 54.2844 65.858H53.3722C53.3392 65.858 53.3128 65.8448 53.2929 65.8185C53.2665 65.7987 53.2533 65.7724 53.2533 65.7395V60.931C53.2533 60.8981 53.2665 60.8684 53.2929 60.8421C53.3128 60.8224 53.3392 60.8125 53.3722 60.8125H54.2844C54.3175 60.8125 54.3472 60.8224 54.3737 60.8421C54.3935 60.8684 54.4034 60.8981 54.4034 60.931V61.3753C54.4034 61.4016 54.41 61.4148 54.4232 61.4148C54.4298 61.4214 54.4398 61.4148 54.453 61.395C54.7306 60.9672 55.1173 60.7532 55.613 60.7532ZM57.1003 65.858C57.0673 65.858 57.0408 65.8448 57.021 65.8185C56.9945 65.7987 56.9813 65.7724 56.9813 65.7395V59.0648C56.9813 59.0319 56.9945 59.0056 57.021 58.9858C57.0408 58.9595 57.0673 58.9463 57.1003 58.9463H58.0125C58.0455 58.9463 58.072 58.9595 58.0918 58.9858C58.1182 59.0056 58.1315 59.0319 58.1315 59.0648V62.6292C58.1315 62.649 58.1381 62.6622 58.1513 62.6687C58.1645 62.6753 58.1777 62.6687 58.191 62.649L59.7972 60.8816C59.8435 60.8355 59.893 60.8125 59.9459 60.8125H60.9969C61.063 60.8125 61.0961 60.8355 61.0961 60.8816C61.0961 60.9013 61.0862 60.9277 61.0663 60.9606L59.8071 62.4614C59.7873 62.4811 59.784 62.5042 59.7972 62.5305L61.2844 65.7197C61.2977 65.7461 61.3043 65.7658 61.3043 65.779C61.3043 65.8316 61.2679 65.858 61.1952 65.858H60.2335C60.1674 65.858 60.1211 65.8283 60.0946 65.7691L59.0139 63.2612C59.0073 63.248 58.9941 63.2381 58.9742 63.2315C58.961 63.2315 58.9511 63.2381 58.9445 63.2513L58.1513 64.1597C58.1381 64.186 58.1315 64.2091 58.1315 64.2288V65.7395C58.1315 65.7724 58.1182 65.7987 58.0918 65.8185C58.072 65.8448 58.0455 65.858 58.0125 65.858H57.1003ZM66.0734 62.7675C66.0999 62.932 66.1131 63.1164 66.1131 63.3204L66.1032 63.6265C66.1032 63.7055 66.0635 63.745 65.9842 63.745H62.8808C62.8477 63.745 62.8312 63.7614 62.8312 63.7944C62.851 64.0116 62.8808 64.1597 62.9204 64.2387C63.0791 64.7126 63.4658 64.9529 64.0805 64.9595C64.53 64.9595 64.8869 64.7751 65.1513 64.4065C65.1778 64.367 65.2108 64.3473 65.2505 64.3473C65.2769 64.3473 65.3 64.3572 65.3199 64.3769L65.9346 64.8805C65.9941 64.9265 66.004 64.9792 65.9643 65.0384C65.7594 65.3281 65.4851 65.5519 65.1414 65.7099C64.8043 65.8678 64.4275 65.9468 64.0111 65.9468C63.4955 65.9468 63.0559 65.8316 62.6924 65.6013C62.3354 65.3709 62.0743 65.0483 61.9091 64.6336C61.7571 64.2782 61.681 63.7845 61.681 63.1526C61.681 62.7708 61.7207 62.4614 61.8 62.2244C61.9322 61.7637 62.1834 61.3983 62.5536 61.1284C62.9171 60.8651 63.3567 60.7335 63.8723 60.7335C65.1744 60.7335 65.9082 61.4115 66.0734 62.7675ZM63.8723 61.7209C63.6277 61.7209 63.4228 61.7834 63.2575 61.9085C63.0989 62.027 62.9865 62.1948 62.9204 62.412C62.8808 62.5239 62.8543 62.6687 62.8411 62.8465C62.8279 62.8794 62.8411 62.8958 62.8808 62.8958H64.8935C64.9266 62.8958 64.9431 62.8794 64.9431 62.8465C64.9299 62.6819 64.91 62.5568 64.8836 62.4713C64.8241 62.2343 64.7084 62.05 64.5366 61.9183C64.3581 61.7867 64.1367 61.7209 63.8723 61.7209ZM69.7519 61.6221C69.7519 61.655 69.742 61.6814 69.7222 61.7011C69.6957 61.7274 69.666 61.7406 69.6329 61.7406H68.6216C68.5885 61.7406 68.572 61.7571 68.572 61.79V64.1696C68.572 64.4197 68.6282 64.6007 68.7406 64.7126C68.8463 64.8245 69.0182 64.8805 69.2561 64.8805H69.5536C69.5866 64.8805 69.6131 64.8903 69.6329 64.9101C69.6594 64.9364 69.6726 64.966 69.6726 64.999V65.7395C69.6726 65.8119 69.6329 65.8547 69.5536 65.8678L69.038 65.8777C68.5158 65.8777 68.1258 65.7889 67.868 65.6111C67.6102 65.4334 67.478 65.0977 67.4714 64.604V61.79C67.4714 61.7571 67.4549 61.7406 67.4219 61.7406H66.8567C66.8237 61.7406 66.7972 61.7274 66.7774 61.7011C66.7509 61.6814 66.7377 61.655 66.7377 61.6221V60.931C66.7377 60.8981 66.7509 60.8684 66.7774 60.8421C66.7972 60.8224 66.8237 60.8125 66.8567 60.8125H67.4219C67.4549 60.8125 67.4714 60.796 67.4714 60.7631V59.6079C67.4714 59.575 67.4847 59.5453 67.5111 59.519C67.5309 59.4993 67.5574 59.4894 67.5904 59.4894H68.453C68.4861 59.4894 68.5125 59.4993 68.5323 59.519C68.5588 59.5453 68.572 59.575 68.572 59.6079V60.7631C68.572 60.796 68.5885 60.8125 68.6216 60.8125H69.6329C69.666 60.8125 69.6957 60.8224 69.7222 60.8421C69.742 60.8684 69.7519 60.8981 69.7519 60.931V61.6221Z" fill="white"/>
<path d="M39.7483 73.9454C39.7483 73.9783 39.735 74.0046 39.7086 74.0244C39.6888 74.0507 39.6623 74.0639 39.6293 74.0639H36.387C36.354 74.0639 36.3375 74.0803 36.3375 74.1132V75.6437C36.3375 75.6766 36.354 75.693 36.387 75.693H38.5188C38.5518 75.693 38.5783 75.7029 38.5981 75.7227C38.6245 75.749 38.6378 75.7786 38.6378 75.8115V76.7693C38.6378 76.8022 38.6245 76.8318 38.5981 76.8581C38.5783 76.8779 38.5518 76.8878 38.5188 76.8878H36.387C36.354 76.8878 36.3375 76.9042 36.3375 76.9371V79.6623C36.3375 79.6952 36.3276 79.7215 36.3077 79.7413C36.2813 79.7676 36.2515 79.7808 36.2185 79.7808H35.0584C35.0254 79.7808 34.9989 79.7676 34.9791 79.7413C34.9527 79.7215 34.9395 79.6952 34.9395 79.6623V72.9876C34.9395 72.9547 34.9527 72.9284 34.9791 72.9086C34.9989 72.8823 35.0254 72.8691 35.0584 72.8691H39.6293C39.6623 72.8691 39.6888 72.8823 39.7086 72.9086C39.735 72.9284 39.7483 72.9547 39.7483 72.9876V73.9454ZM44.1307 79.7808C44.0646 79.7808 44.0216 79.7479 44.0018 79.682L43.7044 78.7144C43.6911 78.6881 43.6746 78.6749 43.6548 78.6749H41.2157C41.1958 78.6749 41.1793 78.6881 41.1661 78.7144L40.8786 79.682C40.8587 79.7479 40.8158 79.7808 40.7497 79.7808H39.4905C39.4508 79.7808 39.4211 79.7676 39.4012 79.7413C39.3814 79.7215 39.3781 79.6886 39.3913 79.6425L41.533 72.9679C41.5528 72.9021 41.5958 72.8691 41.6619 72.8691H43.2185C43.2846 72.8691 43.3276 72.9021 43.3474 72.9679L45.4891 79.6425C45.4957 79.6557 45.499 79.6722 45.499 79.6919C45.499 79.7512 45.4626 79.7808 45.3899 79.7808H44.1307ZM41.523 77.5394C41.5164 77.5789 41.5297 77.5987 41.5627 77.5987H43.3078C43.3474 77.5987 43.3606 77.5789 43.3474 77.5394L42.4551 74.6069C42.4484 74.5806 42.4385 74.5674 42.4253 74.5674C42.4121 74.574 42.4022 74.5872 42.3956 74.6069L41.523 77.5394ZM46.4905 79.7808C46.4574 79.7808 46.431 79.7676 46.4112 79.7413C46.3847 79.7215 46.3715 79.6952 46.3715 79.6623V72.9876C46.3715 72.9547 46.3847 72.9284 46.4112 72.9086C46.431 72.8823 46.4574 72.8691 46.4905 72.8691H47.6505C47.6836 72.8691 47.7133 72.8823 47.7398 72.9086C47.7596 72.9284 47.7695 72.9547 47.7695 72.9876V78.5367C47.7695 78.5696 47.786 78.586 47.8191 78.586H51.0613C51.0944 78.586 51.1241 78.5959 51.1506 78.6157C51.1704 78.642 51.1803 78.6716 51.1803 78.7045V79.6623C51.1803 79.6952 51.1704 79.7215 51.1506 79.7413C51.1241 79.7676 51.0944 79.7808 51.0613 79.7808H46.4905ZM52.1619 79.7808C52.1288 79.7808 52.0991 79.7676 52.0726 79.7413C52.0528 79.7215 52.0429 79.6952 52.0429 79.6623V72.9876C52.0429 72.9547 52.0528 72.9284 52.0726 72.9086C52.0991 72.8823 52.1288 72.8691 52.1619 72.8691H53.3219C53.355 72.8691 53.3814 72.8823 53.4013 72.9086C53.4277 72.9284 53.4409 72.9547 53.4409 72.9876V78.5367C53.4409 78.5696 53.4575 78.586 53.4905 78.586H56.7327C56.7658 78.586 56.7955 78.5959 56.822 78.6157C56.8418 78.642 56.8517 78.6716 56.8517 78.7045V79.6623C56.8517 79.6952 56.8418 79.7215 56.822 79.7413C56.7955 79.7676 56.7658 79.7808 56.7327 79.7808H52.1619ZM37.1604 87.8081C37.1472 87.8213 37.1439 87.8345 37.1505 87.8476C37.1571 87.8608 37.1703 87.8674 37.1902 87.8674H39.8771C39.9102 87.8674 39.9399 87.8773 39.9664 87.897C39.9862 87.9233 39.9961 87.953 39.9961 87.9859V88.9436C39.9961 88.9765 39.9862 89.0029 39.9664 89.0226C39.9399 89.0489 39.9102 89.0621 39.8771 89.0621H35.4154C35.3823 89.0621 35.3526 89.0489 35.3261 89.0226C35.3063 89.0029 35.2964 88.9765 35.2964 88.9436V88.0352C35.2964 87.976 35.3162 87.9266 35.3559 87.8871C35.6798 87.5712 36.0103 87.2289 36.3474 86.8603C36.6845 86.4851 36.896 86.2514 36.982 86.1592C37.167 85.942 37.3554 85.7347 37.5471 85.5372C38.1486 84.8723 38.4494 84.3787 38.4494 84.0561C38.4494 83.8257 38.3668 83.6348 38.2015 83.4834C38.0363 83.3386 37.8214 83.2662 37.557 83.2662C37.2926 83.2662 37.0778 83.3386 36.9125 83.4834C36.7473 83.6348 36.6647 83.8323 36.6647 84.0759V84.3227C36.6647 84.3556 36.6515 84.3852 36.625 84.4116C36.6052 84.4313 36.5787 84.4412 36.5457 84.4412H35.3757C35.3427 84.4412 35.3162 84.4313 35.2964 84.4116C35.27 84.3852 35.2567 84.3556 35.2567 84.3227V83.8586C35.2766 83.5032 35.3889 83.1872 35.5938 82.9108C35.7988 82.6409 36.0698 82.4335 36.4069 82.2887C36.7506 82.1439 37.134 82.0715 37.557 82.0715C38.0263 82.0715 38.4362 82.1571 38.7865 82.3282C39.1302 82.5059 39.3979 82.7429 39.5896 83.0391C39.7747 83.3353 39.8672 83.6645 39.8672 84.0265C39.8672 84.303 39.7978 84.586 39.659 84.8756C39.5202 85.1653 39.312 85.4779 39.0344 85.8136C38.8295 86.0704 38.608 86.3238 38.3701 86.5739C38.1321 86.8241 37.7785 87.1861 37.3091 87.66L37.1604 87.8081ZM43.2185 89.1707C42.4914 89.1707 41.9163 88.9667 41.4933 88.5585C41.0703 88.157 40.8587 87.6074 40.8587 86.9096V84.303C40.8587 83.6184 41.0703 83.0753 41.4933 82.6738C41.9163 82.2723 42.4914 82.0715 43.2185 82.0715C43.9456 82.0715 44.524 82.2723 44.9537 82.6738C45.3767 83.0753 45.5882 83.6184 45.5882 84.303V86.9096C45.5882 87.6074 45.3767 88.157 44.9537 88.5585C44.524 88.9667 43.9456 89.1707 43.2185 89.1707ZM43.2185 87.976C43.516 87.976 43.7539 87.8838 43.9324 87.6995C44.1043 87.5218 44.1902 87.2815 44.1902 86.9787V84.2635C44.1902 83.9607 44.1043 83.7204 43.9324 83.5427C43.7539 83.3584 43.516 83.2662 43.2185 83.2662C42.9277 83.2662 42.6963 83.3584 42.5245 83.5427C42.346 83.7204 42.2568 83.9607 42.2568 84.2635V86.9787C42.2568 87.2815 42.346 87.5218 42.5245 87.6995C42.6963 87.8838 42.9277 87.976 43.2185 87.976ZM48.3644 87.8081C48.3512 87.8213 48.3479 87.8345 48.3545 87.8476C48.3611 87.8608 48.3743 87.8674 48.3942 87.8674H51.0811C51.1142 87.8674 51.1439 87.8773 51.1704 87.897C51.1902 87.9233 51.2001 87.953 51.2001 87.9859V88.9436C51.2001 88.9765 51.1902 89.0029 51.1704 89.0226C51.1439 89.0489 51.1142 89.0621 51.0811 89.0621H46.6194C46.5863 89.0621 46.5599 89.0489 46.5401 89.0226C46.5136 89.0029 46.5004 88.9765 46.5004 88.9436V88.0352C46.5004 87.976 46.5202 87.9266 46.5599 87.8871C46.8838 87.5712 47.2143 87.2289 47.5514 86.8603C47.8885 86.4851 48.1 86.2514 48.186 86.1592C48.371 85.942 48.5594 85.7347 48.7511 85.5372C49.3526 84.8723 49.6534 84.3787 49.6534 84.0561C49.6534 83.8257 49.5708 83.6348 49.4055 83.4834C49.2403 83.3386 49.0254 83.2662 48.761 83.2662C48.4966 83.2662 48.2818 83.3386 48.1165 83.4834C47.9513 83.6348 47.8687 83.8323 47.8687 84.0759V84.3227C47.8687 84.3556 47.8588 84.3852 47.8389 84.4116C47.8125 84.4313 47.7827 84.4412 47.7497 84.4412H46.5797C46.5467 84.4412 46.5202 84.4313 46.5004 84.4116C46.474 84.3852 46.4607 84.3556 46.4607 84.3227V83.8586C46.4806 83.5032 46.5929 83.1872 46.7978 82.9108C47.0028 82.6409 47.2771 82.4335 47.6208 82.2887C47.9579 82.1439 48.338 82.0715 48.761 82.0715C49.2303 82.0715 49.6402 82.1571 49.9905 82.3282C50.3342 82.5059 50.6019 82.7429 50.7936 83.0391C50.9787 83.3353 51.0712 83.6645 51.0712 84.0265C51.0712 84.303 51.0018 84.586 50.863 84.8756C50.7242 85.1653 50.516 85.4779 50.2384 85.8136C50.0335 86.0704 49.812 86.3238 49.5741 86.5739C49.3361 86.8241 48.9825 87.1861 48.5132 87.66L48.3644 87.8081ZM53.9168 87.8081C53.9036 87.8213 53.9003 87.8345 53.9069 87.8476C53.9135 87.8608 53.9268 87.8674 53.9466 87.8674H56.6336C56.6666 87.8674 56.6964 87.8773 56.7228 87.897C56.7426 87.9233 56.7526 87.953 56.7526 87.9859V88.9436C56.7526 88.9765 56.7426 89.0029 56.7228 89.0226C56.6964 89.0489 56.6666 89.0621 56.6336 89.0621H52.1718C52.1388 89.0621 52.1123 89.0489 52.0925 89.0226C52.066 89.0029 52.0528 88.9765 52.0528 88.9436V88.0352C52.0528 87.976 52.0726 87.9266 52.1123 87.8871C52.4362 87.5712 52.7667 87.2289 53.1038 86.8603C53.4409 86.4851 53.6524 86.2514 53.7384 86.1592C53.9235 85.942 54.1118 85.7347 54.3035 85.5372C54.905 84.8723 55.2058 84.3787 55.2058 84.0561C55.2058 83.8257 55.1232 83.6348 54.9579 83.4834C54.7927 83.3386 54.5779 83.2662 54.3134 83.2662C54.049 83.2662 53.8342 83.3386 53.669 83.4834C53.5037 83.6348 53.4211 83.8323 53.4211 84.0759V84.3227C53.4211 84.3556 53.4112 84.3852 53.3914 84.4116C53.3649 84.4313 53.3352 84.4412 53.3021 84.4412H52.1321C52.0991 84.4412 52.0727 84.4313 52.0528 84.4116C52.0264 84.3852 52.0132 84.3556 52.0132 84.3227V83.8586C52.033 83.5032 52.1454 83.1872 52.3503 82.9108C52.5552 82.6409 52.8295 82.4335 53.1732 82.2887C53.5103 82.1439 53.8904 82.0715 54.3134 82.0715C54.7828 82.0715 55.1926 82.1571 55.5429 82.3282C55.8866 82.5059 56.1543 82.7429 56.346 83.0391C56.5311 83.3353 56.6237 83.6645 56.6237 84.0265C56.6237 84.303 56.5542 84.586 56.4154 84.8756C56.2766 85.1653 56.0684 85.4779 55.7908 85.8136C55.5859 86.0704 55.3644 86.3238 55.1265 86.5739C54.8885 86.8241 54.5349 87.1861 54.0656 87.66L53.9168 87.8081Z" fill="#252530"/>
</svg>
