<svg width="11" height="11" viewBox="0 0 11 11" fill="none" xmlns="http://www.w3.org/2000/svg">
<path d="M1.138 10.5659L9.42812 2.27582L9.42812 7.26611C9.42658 7.35462 9.44268 7.44255 9.47549 7.52476C9.5083 7.60698 9.55715 7.68185 9.6192 7.74498C9.68125 7.80812 9.75525 7.85827 9.83689 7.8925C9.91853 7.92673 10.0062 7.94436 10.0947 7.94436C10.1832 7.94436 10.2708 7.92673 10.3525 7.8925C10.4341 7.85827 10.5081 7.80812 10.5702 7.74498C10.6322 7.68185 10.6811 7.60698 10.7139 7.52476C10.7467 7.44255 10.7628 7.35462 10.7613 7.26611L10.7613 0.666443C10.7612 0.489667 10.691 0.320139 10.566 0.195139C10.441 0.0701396 10.2715 -9.63604e-05 10.0947 -0.000122808L3.49502 -0.000123545C3.32024 0.00291474 3.15365 0.074477 3.03112 0.199152C2.9086 0.323827 2.83994 0.491639 2.83994 0.666443C2.83994 0.841247 2.9086 1.00906 3.03112 1.13373C3.15365 1.25841 3.32024 1.32997 3.49502 1.33301L8.48531 1.33301L0.19519 9.62313C0.0701656 9.74815 -7.29623e-05 9.91772 -7.26251e-05 10.0945C-7.29623e-05 10.2713 0.0701653 10.4409 0.19519 10.5659C0.320214 10.691 0.489783 10.7612 0.666594 10.7612C0.843405 10.7612 1.01297 10.691 1.138 10.5659Z" fill="black"/>
</svg>
