<svg width="53" height="53" viewBox="0 0 53 53" fill="none" xmlns="http://www.w3.org/2000/svg">
<path d="M45.6739 24.9073L42.4413 24.3305V19.1436C42.4413 14.9156 40.7618 10.8609 37.7722 7.87128C34.7826 4.88169 30.7278 3.20215 26.4999 3.20215C22.272 3.20215 18.2172 4.88169 15.2276 7.87128C12.238 10.8609 10.5585 14.9156 10.5585 19.1436V24.3309L7.34497 24.904C6.70332 24.9967 6.11684 25.3184 5.69373 25.8096C5.27062 26.3008 5.03942 26.9285 5.04279 27.5768V33.5724C5.03842 34.2177 5.26689 34.8429 5.68626 35.3333C6.10564 35.8237 6.6878 36.1464 7.32593 36.2423L12.6562 37.1946C12.8359 37.8336 13.1877 38.4109 13.6731 38.8636C14.1585 39.3163 14.7589 39.627 15.4088 39.7618V43.0714C15.41 44.1275 15.8302 45.1401 16.577 45.8868C17.3238 46.6336 18.3364 47.0536 19.3925 47.0547H21.3974C21.5641 47.8309 21.9916 48.5267 22.6087 49.0261C23.2259 49.5255 23.9955 49.7984 24.7894 49.7995H28.2104C29.1306 49.7995 30.013 49.434 30.6637 48.7833C31.3143 48.1327 31.6798 47.2502 31.6798 46.3301C31.6798 45.4099 31.3143 44.5275 30.6637 43.8768C30.013 43.2262 29.1306 42.8606 28.2104 42.8606H24.7894C23.9955 42.8618 23.226 43.1348 22.6088 43.6342C21.9916 44.1336 21.5641 44.8293 21.3974 45.6055H19.3925C18.7206 45.6048 18.0764 45.3376 17.6013 44.8625C17.1261 44.3875 16.8588 43.7433 16.8581 43.0714V39.7593C17.6736 39.5913 18.4064 39.1474 18.9328 38.5022C19.4593 37.857 19.7472 37.0501 19.7482 36.2174V24.9321C19.747 23.9833 19.3731 23.073 18.707 22.3973C18.0409 21.7216 17.136 21.3346 16.1873 21.3199V19.1436C16.1873 16.408 17.274 13.7846 19.2083 11.8502C21.1426 9.91594 23.7661 8.82926 26.5016 8.82926C29.2371 8.82926 31.8606 9.91594 33.7949 11.8502C35.7292 13.7846 36.8159 16.408 36.8159 19.1436V21.3199C35.8672 21.3346 34.9623 21.7216 34.2962 22.3973C33.6301 23.073 33.2561 23.9833 33.2549 24.9321V36.2174C33.2542 37.0908 33.5699 37.9349 34.1435 38.5935C34.7172 39.2521 35.5101 39.6805 36.3753 39.7995C37.2406 39.9186 38.1197 39.7201 38.8499 39.2409C39.58 38.7617 40.1119 38.0341 40.347 37.193L45.6573 36.246C46.2992 36.1534 46.8859 35.8317 47.3091 35.3404C47.7324 34.8491 47.9637 34.2213 47.9604 33.5728V27.5768C47.9647 26.931 47.7358 26.3054 47.3157 25.815C46.8956 25.3246 46.3126 25.0022 45.6739 24.9073ZM24.7894 44.3074H28.2104C28.7462 44.3074 29.2601 44.5202 29.6389 44.8991C30.0178 45.2779 30.2306 45.7918 30.2306 46.3276C30.2306 46.8634 30.0178 47.3772 29.6389 47.7561C29.2601 48.135 28.7462 48.3478 28.2104 48.3478H24.7894C24.2536 48.3478 23.7398 48.135 23.3609 47.7561C22.9821 47.3772 22.7692 46.8634 22.7692 46.3276C22.7692 45.7918 22.9821 45.2779 23.3609 44.8991C23.7398 44.5202 24.2536 44.3074 24.7894 44.3074ZM6.492 33.5728V27.5768C6.49189 27.273 6.60219 26.9795 6.80238 26.7509C7.00256 26.5224 7.27898 26.3744 7.58016 26.3346L12.5187 25.4543V35.6961L7.56029 34.8129C7.26257 34.7699 6.99047 34.6206 6.79414 34.3927C6.59781 34.1648 6.49051 33.8736 6.492 33.5728ZM18.299 24.9321V36.2174C18.299 36.7918 18.0708 37.3426 17.6647 37.7487C17.2586 38.1548 16.7078 38.383 16.1335 38.383C15.5591 38.383 15.0083 38.1548 14.6022 37.7487C14.1961 37.3426 13.9679 36.7918 13.9679 36.2174V24.9321C13.9679 24.3578 14.1961 23.807 14.6022 23.4009C15.0083 22.9948 15.5591 22.7666 16.1335 22.7666C16.7078 22.7666 17.2586 22.9948 17.6647 23.4009C18.0708 23.807 18.299 24.3578 18.299 24.9321ZM26.4999 7.38045C23.3812 7.38385 20.3911 8.62425 18.1858 10.8295C15.9804 13.0348 14.7399 16.0248 14.7364 19.1436V21.5985C14.2348 21.8106 13.7874 22.1329 13.4272 22.5415C13.0671 22.95 12.8036 23.4344 12.6562 23.9587L12.0077 24.0726V19.1452C12.0077 15.3016 13.5346 11.6155 16.2524 8.89769C18.9702 6.17988 22.6564 4.65302 26.4999 4.65302C30.3435 4.65302 34.0296 6.17988 36.7474 8.89769C39.4653 11.6155 40.9921 15.3016 40.9921 19.1452V24.0726L40.3445 23.957C40.1971 23.4328 39.9335 22.9484 39.5734 22.5398C39.2133 22.1313 38.7659 21.809 38.2643 21.5969V19.1436C38.2606 16.0247 37.02 13.0346 34.8145 10.8293C32.609 8.62408 29.6188 7.38374 26.4999 7.38045ZM36.8664 38.3838C36.2922 38.383 35.7418 38.1546 35.3358 37.7485C34.9299 37.3425 34.7015 36.792 34.7008 36.2178V24.9321C34.7008 24.3578 34.929 23.807 35.3351 23.4009C35.7412 22.9948 36.2921 22.7666 36.8664 22.7666C37.4407 22.7666 37.9915 22.9948 38.3977 23.4009C38.8038 23.807 39.0319 24.3578 39.0319 24.9321V36.2174C39.0314 36.7917 38.8031 37.3423 38.3971 37.7484C37.9911 38.1545 37.4406 38.383 36.8664 38.3838ZM46.5078 33.5732C46.508 33.877 46.3978 34.1706 46.1976 34.3991C45.9974 34.6277 45.7209 34.7756 45.4197 34.8154L40.4812 35.6961V25.4535L45.4396 26.3371C45.7373 26.38 46.0095 26.5292 46.2058 26.7572C46.4021 26.9851 46.5094 27.2764 46.5078 27.5772V33.5732Z" fill="white"/>
</svg>
