<svg width="56" height="56" viewBox="0 0 56 56" fill="none" xmlns="http://www.w3.org/2000/svg">
<g clip-path="url(#clip0_1_3039)">
<path d="M33.4025 22.5977C33.7227 22.9179 34.1426 23.0781 34.5625 23.0781C34.9824 23.0781 35.4023 22.9179 35.7225 22.5977L39.0038 19.3164C39.6445 18.6757 39.6445 17.637 39.0038 16.9962L35.7225 13.715C35.0819 13.0744 34.0431 13.0744 33.4024 13.715C32.7616 14.3557 32.7616 15.3944 33.4024 16.0352L35.5236 18.1563L33.4025 20.2774C32.7616 20.9181 32.7616 21.9569 33.4025 22.5977ZM26.7818 23.0292C26.9153 23.0625 27.0491 23.0785 27.1809 23.0785C27.916 23.0785 28.5849 22.5808 28.7712 21.8353L30.4118 15.2728C30.6317 14.3938 30.0972 13.503 29.2181 13.2833C28.34 13.0638 27.4483 13.598 27.2287 14.477L25.5881 21.0395C25.3683 21.9187 25.9027 22.8094 26.7818 23.0292ZM20.2775 22.5977C20.5977 22.9179 21.0176 23.0781 21.4375 23.0781C21.8574 23.0781 22.2773 22.9179 22.5975 22.5977C23.2383 21.9569 23.2383 20.9182 22.5975 20.2775L20.4764 18.1563L22.5975 16.0352C23.2383 15.3944 23.2383 14.3557 22.5975 13.715C21.9569 13.0744 20.9181 13.0744 20.2774 13.715L16.9961 16.9962C16.3554 17.637 16.3554 18.6757 16.9961 19.3164L20.2775 22.5977ZM56 27.9972C55.9989 27.4024 55.676 26.8548 55.1561 26.5659L48.9042 23.0926L55.1612 19.5877C55.6792 19.2975 56 18.7501 56 18.1563C56 17.5625 55.6792 17.0151 55.1612 16.7249L28.8018 1.95926C28.3036 1.68025 27.6964 1.68025 27.1982 1.95926L0.8388 16.7249C0.3208 17.0151 2.78605e-06 17.5625 2.78605e-06 18.1563C2.78605e-06 18.7501 0.3208 19.2975 0.8388 19.5877L7.09581 23.0926L0.84394 26.5659C0.323971 26.8548 0.00109654 27.4024 2.78605e-06 27.9972C-0.00109096 28.592 0.319925 29.1407 0.8388 29.4314L7.09581 32.9363L0.84394 36.4096C0.323971 36.6985 0.00109654 37.2462 2.78605e-06 37.8409C-0.00109096 38.4357 0.319925 38.9844 0.8388 39.2752L27.1982 54.0408C27.4472 54.1804 27.7237 54.25 28 54.25C28.2763 54.25 28.5528 54.1802 28.8018 54.0408L55.1612 39.2752C55.6801 38.9844 56.0011 38.4357 56 37.8409C55.9989 37.2462 55.676 36.6985 55.1561 36.4096L48.9042 32.9363L55.1612 29.4314C55.6801 29.1407 56.0011 28.592 56 27.9972ZM28 31.0414L4.99767 18.1563L28 5.27114L51.0023 18.1563L28 31.0414ZM50.9918 37.8497L28 50.7289L5.00817 37.8497L10.4601 34.8209L27.1982 44.197C27.4472 44.3366 27.7237 44.4063 28 44.4063C28.2763 44.4063 28.5528 44.3365 28.8018 44.197L45.5399 34.8209L50.9918 37.8497ZM5.00806 28.0059L10.46 24.9771L27.1981 34.3533C27.4471 34.4929 27.7236 34.5625 27.9999 34.5625C28.2762 34.5625 28.5527 34.4927 28.8017 34.3533L45.5398 24.9771L50.9917 28.0059L28 40.8852L5.00806 28.0059Z" fill="url(#paint0_linear_1_3039)"/>
</g>
<defs>
<linearGradient id="paint0_linear_1_3039" x1="14.359" y1="8.25641" x2="43.7949" y2="46.3077" gradientUnits="userSpaceOnUse">
<stop stop-color="#98C93F"/>
<stop offset="1" stop-color="#07A0F3"/>
</linearGradient>
<clipPath id="clip0_1_3039">
<rect width="56" height="56" fill="white"/>
</clipPath>
</defs>
</svg>
