<svg width="53" height="47" viewBox="0 0 53 47" fill="none" xmlns="http://www.w3.org/2000/svg">
<path d="M17.4063 31.7707H47.994C48.4446 31.7707 48.8953 31.4327 48.9516 30.9257L52.6695 8.28066C52.7821 7.66102 52.2752 7.15404 51.7118 7.15404H15.3784L14.5334 3.77418C13.9701 1.57727 11.9985 0 9.68893 0H1.01396C0.450647 0 0 0.450649 0 1.01396C0 1.57727 0.450647 2.02792 1.01396 2.02792H9.68893C11.0409 2.02792 12.3365 2.92921 12.6181 4.28116C14.0264 10.5902 17.3499 29.7991 17.3499 29.7991C14.7024 29.7991 12.5618 31.996 12.5618 34.6436C12.5618 37.2911 14.7587 39.4317 17.4063 39.4317H19.8848C18.3076 41.5723 18.8145 44.5578 20.9551 46.0788C23.0957 47.656 26.0812 47.149 27.6022 45.0085C28.8415 43.3185 28.8415 41.0653 27.6022 39.3754H38.8684C37.2911 41.5159 37.7981 44.5015 39.9387 46.0224C42.0792 47.5997 45.0648 47.0927 46.5857 44.9521C47.825 43.2622 47.825 41.009 46.5857 39.319H47.9377C48.501 39.319 48.9516 38.8684 48.9516 38.3051C48.9516 37.7418 48.501 37.2911 47.9377 37.2911H17.4063C15.829 37.2911 14.5897 36.0518 14.5897 34.4746C14.5897 33.01 15.829 31.7707 17.4063 31.7707ZM19.3779 29.7991L18.4202 23.997H48.1067L47.149 29.7991H19.3779ZM48.4446 22.0254H18.0822L17.2373 16.8993H49.2896L48.4446 22.0254ZM50.5289 9.12562L49.5713 14.9277H16.8993L15.9417 9.12562H50.5289ZM26.5319 42.1919C26.5319 43.7128 25.2926 45.0085 23.7153 45.0085C22.1381 45.0085 20.8988 43.7692 20.8988 42.1919C20.8988 40.6146 22.1381 39.3754 23.7153 39.3754C25.2926 39.3754 26.5319 40.6146 26.5319 42.1919ZM45.5718 42.1919C45.5718 43.7128 44.3325 45.0085 42.7552 45.0085C41.1779 45.0085 39.9387 43.7692 39.9387 42.1919C39.9387 40.6146 41.1779 39.3754 42.7552 39.3754C44.2761 39.3754 45.5718 40.6146 45.5718 42.1919Z" fill="white"/>
</svg>
