<svg width="46" height="51" viewBox="0 0 46 51" fill="none" xmlns="http://www.w3.org/2000/svg">
<path d="M16.7303 49.0078C16.7303 50.1081 15.8327 51 14.7254 51H8.01987C3.59771 51 0 47.4252 0 43.0312V7.96875C0 3.57478 3.59771 0 8.01987 0H32.6698C37.092 0 40.6897 3.57478 40.6897 7.96875V20.2207C40.6897 21.321 39.7921 22.2129 38.6847 22.2129C37.5774 22.2129 36.6798 21.321 36.6798 20.2207V7.96875C36.6798 5.77177 34.8809 3.98438 32.6698 3.98438H8.01987C5.80879 3.98438 4.00993 5.77177 4.00993 7.96875V43.0312C4.00993 45.2282 5.80879 47.0156 8.01987 47.0156H14.7254C15.8327 47.0156 16.7303 47.9075 16.7303 49.0078ZM30.6649 11.9531H10.0137C8.90637 11.9531 8.00874 12.845 8.00874 13.9453C8.00874 15.0456 8.90637 15.9375 10.0137 15.9375H30.6649C31.7722 15.9375 32.6698 15.0456 32.6698 13.9453C32.6698 12.845 31.7722 11.9531 30.6649 11.9531ZM32.6698 21.9141C32.6698 20.8138 31.7722 19.9219 30.6649 19.9219H10.0137C8.90637 19.9219 8.00874 20.8138 8.00874 21.9141C8.00874 23.0143 8.90637 23.9062 10.0137 23.9062H30.6649C31.7722 23.9062 32.6698 23.0143 32.6698 21.9141ZM10.0137 27.8906C8.90637 27.8906 8.00874 28.7825 8.00874 29.8828C8.00874 30.9831 8.90637 31.875 10.0137 31.875H22.5559C23.6632 31.875 24.5608 30.9831 24.5608 29.8828C24.5608 28.7825 23.6632 27.8906 22.5559 27.8906H10.0137ZM44.2411 37.2963L33.2566 48.1903C33.012 48.433 32.7084 48.6086 32.3754 48.7002L24.2829 50.9276C24.1061 50.9763 23.9261 51 23.7477 51C23.2147 51 22.695 50.7885 22.3125 50.399C21.8018 49.8789 21.6167 49.124 21.8292 48.4287L24.2264 40.5869C24.3225 40.273 24.4949 39.9875 24.7287 39.7557L35.7362 28.8425C38.0799 26.5137 41.8958 26.5138 44.241 28.8441C46.5863 31.1745 46.5863 34.9661 44.2411 37.2963ZM38.1804 37.6776L35.3444 34.8597L27.9171 42.2233L26.7256 46.1209L30.7969 45.0003L38.1804 37.6776ZM41.4057 31.6616C40.6239 30.8849 39.352 30.8849 38.5703 31.6616L38.1831 32.0455L41.0186 34.863L41.4071 34.4778C42.1874 33.7022 42.1874 32.4384 41.4057 31.6616Z" fill="url(#paint0_linear_1_3018)"/>
<defs>
<linearGradient id="paint0_linear_1_3018" x1="2.47692" y1="2.44521" x2="36.9169" y2="50.7228" gradientUnits="userSpaceOnUse">
<stop stop-color="#98C93F"/>
<stop offset="1" stop-color="#07A0F3"/>
</linearGradient>
</defs>
</svg>
