<svg width="58" height="41" viewBox="0 0 58 41" fill="none" xmlns="http://www.w3.org/2000/svg">
<path d="M37.1824 0C32.573 0 28.148 1.53646 24.5834 4.42501H6.26876C4.17918 4.42501 2.45834 6.14585 2.45834 8.23543V11.2469C2.45834 13.2136 3.93334 14.8729 5.90001 15.0573C5.65418 15.549 5.53126 16.1636 5.53126 16.7167V19.7282C5.53126 20.2813 5.65418 20.8959 5.90001 21.3875H3.81043C1.72084 21.3875 0 23.1084 0 25.198V28.2094C0 29.9303 1.22917 31.4667 2.88855 31.8969C2.58126 32.4501 2.45834 33.0647 2.45834 33.6792V36.6907C2.45834 38.7803 4.17918 40.5011 6.26876 40.5011H37.2438C48.4293 40.5011 57.4637 31.4667 57.4637 20.2813C57.4022 9.03439 48.3678 0 37.1824 0ZM4.60938 11.2469V8.23543C4.60938 7.31356 5.34689 6.57605 6.26876 6.57605H22.3094C20.65 8.41981 19.298 10.5709 18.3761 12.9063H6.26876C5.34689 12.9063 4.60938 12.1688 4.60938 11.2469ZM7.68231 19.7282V16.7167C7.68231 15.7948 8.41981 15.0573 9.34169 15.0573H17.6386C17.2084 16.7782 16.9625 18.499 16.9625 20.2198C16.9625 20.5886 16.9625 20.9573 17.024 21.3261H9.34169C8.41981 21.3875 7.68231 20.5886 7.68231 19.7282ZM2.15105 28.148V25.1365C2.15105 24.2146 2.88855 23.4771 3.81043 23.4771H17.2698C17.6386 25.6896 18.3761 27.8407 19.4209 29.8074H3.81043C2.88855 29.8074 2.15105 29.0699 2.15105 28.148ZM6.26876 38.2886C5.34689 38.2886 4.60938 37.5511 4.60938 36.6292V33.6178C4.60938 32.6959 5.34689 31.9584 6.26876 31.9584H20.7115C22.6167 34.6626 25.1365 36.8136 28.0865 38.2886H6.26876ZM44.1272 36.9365C41.9147 37.8584 39.5793 38.3501 37.1824 38.2886C31.1594 38.2886 25.5053 35.2772 22.1865 30.299C20.5886 27.9021 19.5438 25.198 19.2365 22.3094C19.175 21.6334 19.1136 20.8959 19.1136 20.2198C19.1136 10.2021 27.2261 2.15105 37.1824 2.15105C47.2001 2.15105 55.2512 10.2636 55.2512 20.2198C55.2512 27.5334 50.8876 34.1094 44.1272 36.9365Z" fill="white"/>
<path d="M37.1819 5.7168C29.1923 5.7168 22.6777 12.1699 22.6777 20.221C22.6777 20.7741 22.7392 21.3272 22.8007 21.8804C23.6611 29.1939 29.8069 34.6637 37.1819 34.6637C39.0871 34.6637 40.9924 34.295 42.7132 33.5575C50.0882 30.4846 53.5913 22.0033 50.5184 14.6283C48.3059 9.28139 43.0205 5.7168 37.1819 5.7168ZM41.9142 31.5908C40.4392 32.2054 38.8413 32.5127 37.1819 32.5127C30.9132 32.5127 25.6277 27.8418 24.9517 21.6345C24.7673 19.7908 24.9517 17.947 25.5663 16.1647C27.7788 9.7116 34.7851 6.33138 41.2382 8.54389C47.6913 10.7564 51.0715 17.7627 48.859 24.2158C47.6913 27.596 45.1715 30.2387 41.9142 31.5908Z" fill="white"/>
<path d="M37.9818 19.1138H36.4453C35.6464 19.1138 34.9703 18.4378 34.9703 17.6388V17.2086C34.9703 16.4096 35.6464 15.7336 36.4453 15.7336H40.0099C40.6245 15.7336 41.1162 15.2419 41.1162 14.6274C41.1162 14.0128 40.6245 13.5211 40.0099 13.5211H38.2891V12.4148C38.2891 11.8003 37.7974 11.3086 37.1828 11.3086C36.5682 11.3086 36.0766 11.8003 36.0766 12.4148V13.5826C34.2328 13.7669 32.7578 15.3034 32.7578 17.2086V17.6388C32.7578 19.6669 34.4172 21.2649 36.3839 21.2649H37.9203C38.7193 21.2649 39.3953 21.9409 39.3953 22.7399V23.1701C39.3953 23.969 38.7193 24.6451 37.9203 24.6451H34.3557C33.7411 24.6451 33.2495 25.1367 33.2495 25.7513C33.2495 26.3659 33.7411 26.8576 34.3557 26.8576H36.0766V27.9638C36.0766 28.5784 36.5682 29.0701 37.1828 29.0701C37.7974 29.0701 38.2891 28.5784 38.2891 27.9638V26.7961C40.1328 26.6118 41.6078 25.0753 41.6078 23.1701V22.7399C41.6078 20.7732 39.9485 19.1138 37.9818 19.1138Z" fill="white"/>
</svg>
