<svg width="55" height="55" viewBox="0 0 55 55" fill="none" xmlns="http://www.w3.org/2000/svg">
<path d="M37.1311 25.8671C37.1273 25.8671 37.1236 25.8671 37.1198 25.8671H32.5138V21.2498C32.5201 20.3185 31.7702 19.5585 30.8389 19.5522C30.8351 19.5522 30.8313 19.5522 30.8276 19.5522H24.1733C23.2421 19.5522 22.4871 20.3072 22.4871 21.2385V25.8557H17.8811C16.9499 25.8495 16.1898 26.5993 16.1836 27.5305C16.1836 27.5381 16.1836 27.5456 16.1836 27.5533V34.1963C16.1836 35.1275 16.9386 35.8825 17.8698 35.8825H22.4871V40.4885C22.4809 41.4197 23.2308 42.1798 24.162 42.186C24.1658 42.186 24.1696 42.186 24.1733 42.186H30.8163C31.7475 42.186 32.5025 41.431 32.5025 40.4998V35.8825H37.1198C38.051 35.8887 38.8111 35.1388 38.8173 34.2076C38.8173 34.2038 38.8173 34.2 38.8173 34.1963V27.5533C38.8173 26.622 38.0625 25.8671 37.1311 25.8671ZM36.554 33.6191H31.3822C30.7572 33.6191 30.2505 34.1258 30.2505 34.7508V39.9226H24.7505V34.7508C24.7505 34.1258 24.2438 33.6191 23.6188 33.6191H18.447V28.1304H23.6188C24.2438 28.1304 24.7505 27.6237 24.7505 26.9987V21.8156H30.2392V26.9874C30.2392 27.6124 30.7459 28.1191 31.3708 28.1191H36.554V33.6191Z" fill="white"/>
<path d="M47.1914 11.0872H37.8663V7.10371C37.925 5.28593 36.4989 3.76466 34.6811 3.70596C34.5885 3.70299 34.4958 3.70383 34.4033 3.70864H20.5967C18.7804 3.61401 17.2312 5.00966 17.1364 6.82588C17.1316 6.91839 17.1306 7.01105 17.1337 7.10371V11.0646H7.80864C4.20988 11.0646 0 13.113 0 18.8733V43.4874C0 49.2477 4.20988 51.2961 7.80864 51.2961H47.1914C50.7901 51.2961 55 49.2477 55 43.4874V18.8959C55 13.1356 50.8014 11.0872 47.1914 11.0872ZM19.3971 7.10371C19.3971 6.77552 19.3971 5.8928 20.608 5.8928H34.4033C35.6142 5.8928 35.6142 6.7642 35.6142 7.10371V11.0646H19.3971V7.10371ZM52.7366 43.4874C52.7366 48.4895 48.8663 49.0327 47.1914 49.0327H7.80864C6.14506 49.0327 2.26337 48.4895 2.26337 43.4874V18.8959C2.26337 13.8938 6.13375 13.3506 7.80864 13.3506H47.1914C48.8549 13.3506 52.7366 13.8938 52.7366 18.8959V43.4874Z" fill="white"/>
</svg>
