<svg width="52" height="52" viewBox="0 0 52 52" fill="none" xmlns="http://www.w3.org/2000/svg">
<path d="M38.25 46.0078H35.8125C35.6239 46.0078 35.4431 46.0827 35.3098 46.216C35.1765 46.3494 35.1016 46.5302 35.1016 46.7188C35.1016 46.9073 35.1765 47.0881 35.3098 47.2215C35.4431 47.3548 35.6239 47.4297 35.8125 47.4297H38.25C38.4386 47.4297 38.6194 47.3548 38.7527 47.2215C38.886 47.0881 38.9609 46.9073 38.9609 46.7188C38.9609 46.5302 38.886 46.3494 38.7527 46.216C38.6194 46.0827 38.4386 46.0078 38.25 46.0078Z" fill="white"/>
<path d="M33.8453 12.7533C34.4169 10.4746 34.6777 8.12904 34.6208 5.78042C34.6118 5.59812 34.5331 5.42627 34.4009 5.30043C34.2687 5.17458 34.0932 5.1044 33.9107 5.10442C29.7263 5.10442 26.4987 2.33664 26.4674 2.30982C26.3379 2.19695 26.1719 2.13477 26.0002 2.13477C25.8284 2.13477 25.6625 2.19695 25.533 2.30982C25.5009 2.33745 22.272 5.10523 18.0889 5.10523C17.9064 5.10522 17.7308 5.1754 17.5986 5.30124C17.4664 5.42708 17.3877 5.59894 17.3787 5.78123C17.3218 8.12985 17.5827 10.4754 18.1543 12.7541C19.4051 17.6685 22.0344 20.9794 25.7552 22.3274C25.9116 22.3843 26.0831 22.3843 26.2395 22.3274C29.9636 20.9794 32.5928 17.6685 33.8453 12.7533ZM25.999 20.8986C19.36 18.2819 18.8128 9.05114 18.7905 6.50395C21.4036 6.2796 23.9013 5.32595 25.999 3.7516C28.0966 5.32603 30.5943 6.27968 33.2075 6.50395C33.1851 9.05114 32.6379 18.2819 25.999 20.8986Z" fill="white"/>
<path d="M45.6596 12.4325C45.5842 11.612 45.2033 10.8498 44.5924 10.2969C43.9815 9.74397 43.1852 9.44078 42.3613 9.44737C41.5374 9.45396 40.746 9.76987 40.1441 10.3325C39.5421 10.8951 39.1735 11.6633 39.1112 12.4849L38.4052 21.8169C37.6804 22.074 36.9516 22.7943 35.7166 24.2198C35.4932 24.4733 30.2412 30.4923 30.2412 36.2854V41.1747C29.8051 41.2632 29.413 41.4996 29.1311 41.8437C28.8491 42.1879 28.6945 42.6188 28.6934 43.0637V49.1575C28.6934 49.346 28.7683 49.5269 28.9016 49.6602C29.0349 49.7935 29.2157 49.8684 29.4043 49.8684H42.4043C42.5928 49.8684 42.7737 49.7935 42.907 49.6602C43.0403 49.5269 43.1152 49.346 43.1152 49.1575V43.0637C43.1145 42.6185 42.9601 42.1871 42.6781 41.8425C42.3961 41.498 42.0038 41.2613 41.5674 41.1726V39.6106C41.5591 38.0803 41.9462 36.5737 42.6911 35.2369C42.8625 34.9399 43.0974 34.5894 43.3732 34.1835C44.1474 33.1038 44.8071 31.9466 45.3419 30.7304C46.7451 27.2789 46.1434 17.7852 45.6596 12.4325ZM41.6934 43.0637V48.4465H30.1152V43.0637C30.1152 42.929 30.1687 42.7999 30.264 42.7047C30.3592 42.6094 30.4884 42.5559 30.623 42.5559H41.1855C41.3202 42.556 41.4493 42.6096 41.5445 42.7048C41.6397 42.8 41.6933 42.9291 41.6934 43.0637ZM44.0252 30.1929C43.5257 31.3179 42.912 32.3887 42.1939 33.3885C41.905 33.8167 41.656 34.1864 41.4594 34.526C40.5843 36.0768 40.1313 37.83 40.1455 39.6106V41.134H31.663V36.2834C31.663 31.0322 36.7318 25.2172 36.7875 25.1522C38.228 23.4886 38.7188 23.1376 39.0523 23.1242C39.3467 23.1446 39.6315 23.2377 39.8811 23.3951C40.2875 23.6478 40.5779 24.0506 40.6892 24.5161C40.8005 24.9816 40.7236 25.4722 40.4754 25.8814L37.6276 30.6325C37.537 30.7938 37.5128 30.9841 37.5603 31.1629C37.6077 31.3418 37.723 31.4951 37.8817 31.5903C38.0403 31.6855 38.2299 31.7151 38.41 31.6728C38.5901 31.6305 38.7467 31.5196 38.8464 31.3637L41.6942 26.6143C42.136 25.8869 42.273 25.0144 42.0752 24.1866C41.8774 23.3588 41.3609 22.6425 40.6379 22.1934C40.3863 22.0374 40.1146 21.9163 39.8303 21.8335L40.5299 12.5917C40.5564 12.243 40.6804 11.9087 40.8879 11.6271C41.0953 11.3455 41.3778 11.1279 41.703 10.9992C42.0282 10.8704 42.3831 10.8358 42.727 10.8992C43.071 10.9625 43.3902 11.1214 43.6482 11.3575C43.9904 11.6701 44.2029 12.0996 44.2438 12.5613C44.6236 16.7668 45.363 26.9027 44.0252 30.1929Z" fill="white"/>
<path d="M21.7583 41.1719V36.2827C21.7583 30.4904 16.5067 24.4714 16.2873 24.2228C15.0487 22.7932 14.3191 22.0725 13.5939 21.8153L12.8878 12.4838C12.8261 11.6618 12.4577 10.8931 11.8557 10.3301C11.2537 9.76712 10.462 9.45099 9.6378 9.44444C8.81357 9.43789 8.01699 9.74141 7.4061 10.2948C6.79521 10.8481 6.41464 11.6109 6.3399 12.4318C5.85606 17.7833 5.254 27.277 6.658 30.7293C7.19249 31.9456 7.85228 33.1029 8.62668 34.1824C8.9005 34.5887 9.13693 34.9392 9.30837 35.2358C10.0533 36.5728 10.4403 38.0794 10.4321 39.6099V41.1719C9.99573 41.2606 9.6034 41.4973 9.32138 41.8418C9.03937 42.1864 8.88496 42.6178 8.88425 43.063V49.1568C8.88435 49.3453 8.95929 49.5261 9.09259 49.6594C9.2259 49.7927 9.40666 49.8676 9.59518 49.8677H22.5952C22.7837 49.8676 22.9645 49.7927 23.0978 49.6594C23.2311 49.5261 23.306 49.3453 23.3061 49.1568V43.063C23.3054 42.6178 23.151 42.1864 22.869 41.8418C22.587 41.4973 22.1946 41.2606 21.7583 41.1719ZM9.80562 33.3874C9.08763 32.3882 8.47409 31.3179 7.97465 30.1934C6.63403 26.9028 7.37584 16.7661 7.75609 12.5622C7.79859 12.0967 8.01448 11.6642 8.36093 11.3504C8.70739 11.0366 9.15911 10.8645 9.62652 10.8682C10.0939 10.8719 10.5429 11.0511 10.8843 11.3703C11.2258 11.6895 11.4349 12.1253 11.47 12.5914L12.1696 21.8336C11.6929 21.9714 11.2543 22.2172 10.8879 22.5518C10.5215 22.8865 10.2371 23.301 10.0568 23.7633C9.87641 24.2256 9.80493 24.7232 9.84789 25.2175C9.89085 25.7119 10.0471 26.1897 10.3045 26.614L13.1523 31.363C13.1989 31.4459 13.2616 31.5186 13.3367 31.5768C13.4119 31.6351 13.498 31.6776 13.5899 31.702C13.6818 31.7264 13.7776 31.7321 13.8717 31.7187C13.9659 31.7054 14.0564 31.6734 14.1379 31.6244C14.2194 31.5755 14.2903 31.5108 14.3464 31.434C14.4024 31.3572 14.4425 31.2699 14.4642 31.1774C14.486 31.0848 14.4889 30.9889 14.4729 30.8951C14.4569 30.8014 14.4223 30.7119 14.3711 30.6318L11.5232 25.8827C11.2751 25.4739 11.1981 24.9837 11.309 24.5185C11.4199 24.0534 11.7097 23.6506 12.1156 23.3977C12.3657 23.2396 12.6512 23.1461 12.9463 23.1255C13.2799 23.1389 13.7706 23.4911 15.2157 25.1567C15.2672 25.2148 20.3344 31.0202 20.3344 36.2807V41.1313H11.8539V39.6099C11.8678 37.8295 11.4148 36.0765 10.5401 34.5257C10.3435 34.1852 10.0945 33.8156 9.80562 33.3874ZM21.8842 48.4458H10.3061V43.063C10.3062 42.9284 10.3598 42.7993 10.455 42.7041C10.5502 42.6089 10.6793 42.5553 10.8139 42.5552H21.3764C21.5111 42.5552 21.6403 42.6087 21.7355 42.7039C21.8307 42.7992 21.8842 42.9283 21.8842 43.063V48.4458Z" fill="white"/>
</svg>
