<svg width="31" height="12" viewBox="0 0 31 12" fill="none" xmlns="http://www.w3.org/2000/svg">
<path d="M30.2727 5.25922H2.48278L6.33227 1.28947C6.40173 1.22028 6.45714 1.13752 6.49525 1.04602C6.53337 0.954516 6.55343 0.856102 6.55427 0.756517C6.55511 0.656933 6.53671 0.558173 6.50014 0.466001C6.46357 0.373828 6.40957 0.290089 6.34128 0.21967C6.273 0.14925 6.1918 0.0935604 6.10242 0.0558497C6.01304 0.0181391 5.91727 -0.000837044 5.8207 2.83178e-05C5.72413 0.00089368 5.6287 0.0215834 5.53997 0.0608901C5.45124 0.100197 5.37099 0.157334 5.3039 0.228966L0.212938 5.47897C0.0765938 5.61961 0 5.81034 0 6.00922C0 6.20809 0.0765938 6.39882 0.212938 6.53947L5.3039 11.7895C5.44106 11.9261 5.62477 12.0017 5.81547 12C6.00616 11.9983 6.18857 11.9194 6.32341 11.7803C6.45825 11.6413 6.53474 11.4532 6.5364 11.2565C6.53805 11.0599 6.46475 10.8704 6.33227 10.729L2.48278 6.75922H30.2727C30.4656 6.75922 30.6506 6.6802 30.787 6.53955C30.9234 6.39889 31 6.20813 31 6.00922C31 5.8103 30.9234 5.61954 30.787 5.47889C30.6506 5.33823 30.4656 5.25922 30.2727 5.25922Z" fill="url(#paint0_linear_1_3046)"/>
<defs>
<linearGradient id="paint0_linear_1_3046" x1="15.5" y1="0" x2="15.5" y2="12" gradientUnits="userSpaceOnUse">
<stop stop-color="white"/>
<stop offset="1" stop-color="#999999"/>
</linearGradient>
</defs>
</svg>
