<svg width="50" height="50" viewBox="0 0 50 50" fill="none" xmlns="http://www.w3.org/2000/svg">
<g clip-path="url(#clip0_1_3290)">
<path d="M39.6424 14.454L30.5113 9.17921V0.602503C30.5113 0.269941 30.2419 0 29.9088 0H20.1897C19.8565 0 19.5869 0.269941 19.5869 0.602503V9.18437L10.4554 14.454C10.2705 14.5619 10.1562 14.7601 10.1562 14.9741V31.477C10.1654 31.6886 10.2769 31.8831 10.4554 31.9977L24.4367 40.0774V42.2859C24.4412 42.3303 24.4513 42.374 24.4659 42.416C24.4628 42.4494 24.4628 42.4835 24.4659 42.5175C24.4856 42.557 24.5099 42.5941 24.5376 42.6279C24.571 42.7011 24.6318 42.7583 24.7066 42.7875C24.7309 42.8072 24.7568 42.8249 24.7841 42.8407C24.8571 42.8717 24.9355 42.8881 25.0155 42.8884C26.6445 42.8884 27.966 44.2098 27.966 45.8389C27.966 47.4686 26.6445 48.7894 25.0155 48.7894C23.3858 48.7894 22.065 47.4686 22.065 45.8389C22.065 45.5063 21.795 45.2364 21.4619 45.2364C21.1293 45.2364 20.8593 45.5063 20.8593 45.8389C20.8569 48.0571 22.5966 49.8859 24.8124 49.995C27.0273 50.1032 28.9375 48.4523 29.1518 46.2447C29.3655 44.0372 27.8079 42.0503 25.6131 41.7311V40.0774L39.5941 32.0023C39.7795 31.8944 39.8935 31.6962 39.8935 31.4819V14.9741C39.9109 14.768 39.8148 14.5686 39.6424 14.454ZM17.0799 34.4324L38.7362 21.9266V26.4387L20.9901 36.6886L17.0799 34.4324ZM11.9644 31.477L38.7362 16.0204V20.5377L15.8892 33.7329L11.9644 31.477ZM33.0185 12.0191L11.3619 24.5102V20.0075L29.1084 9.76256L33.0185 12.0191ZM11.3619 25.9183L34.2093 12.7179L38.1188 14.9741L11.3619 30.4307V25.9183ZM20.7922 1.20501H29.3062V8.4849L25.3529 6.1901C25.1665 6.08309 24.9367 6.08309 24.7504 6.1901L20.7922 8.47548V1.20501ZM25.0492 7.41942L27.9033 9.08284L11.3619 18.6147V15.3216L25.0492 7.41942ZM25.0492 39.0314L22.1951 37.3829L38.7362 27.837V31.1298L25.0492 39.0314Z" fill="white"/>
</g>
<defs>
<clipPath id="clip0_1_3290">
<rect width="50" height="50" fill="white"/>
</clipPath>
</defs>
</svg>
