<svg width="67" height="67" viewBox="0 0 67 67" fill="none" xmlns="http://www.w3.org/2000/svg">
<path d="M51.6452 61.4163H15.3535C13.0444 61.4163 11.166 59.538 11.166 57.2288V9.77051C11.166 7.46139 13.0444 5.58301 15.3535 5.58301H42.1136C43.232 5.58301 44.2843 6.01852 45.0749 6.80981L54.6059 16.3407C55.3972 17.1313 55.8327 18.1837 55.8327 19.3021V57.2288C55.8327 59.538 53.9543 61.4163 51.6452 61.4163ZM15.3535 8.37467C14.584 8.37467 13.9577 9.00103 13.9577 9.77051V57.2288C13.9577 57.9983 14.584 58.6247 15.3535 58.6247H51.6452C52.4147 58.6247 53.041 57.9983 53.041 57.2288V19.3021C53.041 18.9293 52.8958 18.5783 52.6321 18.3145L43.1012 8.78361C42.8374 8.51985 42.4864 8.37467 42.1136 8.37467H15.3535Z" fill="url(#paint0_linear_1_3021)"/>
<path d="M54.4375 19.5417H44.6667C43.127 19.5417 41.875 18.2897 41.875 16.7501V6.97925H44.6667V16.7501H54.4375V19.5417Z" fill="url(#paint1_linear_1_3021)"/>
<path d="M23.7297 34.8958C23.3726 34.8958 23.0155 34.7594 22.7428 34.4868L19.9512 31.6951L21.925 29.7214L23.7297 31.5261L28.3262 26.9297L30.3 28.9035L24.7166 34.4868C24.444 34.7594 24.0869 34.8958 23.7297 34.8958Z" fill="#8FACFF"/>
<path d="M33.5 30.7085H47.4583V33.5002H33.5V30.7085Z" fill="#8FACFF"/>
<path d="M33.5 41.875H47.4583V44.6667H33.5V41.875Z" fill="#8FACFF"/>
<path d="M25.125 47.4585C22.8159 47.4585 20.9375 45.5801 20.9375 43.271C20.9375 40.9619 22.8159 39.0835 25.125 39.0835C27.4341 39.0835 29.3125 40.9619 29.3125 43.271C29.3125 45.5801 27.4341 47.4585 25.125 47.4585ZM25.125 41.8752C24.3555 41.8752 23.7292 42.5015 23.7292 43.271C23.7292 44.0405 24.3555 44.6668 25.125 44.6668C25.8945 44.6668 26.5208 44.0405 26.5208 43.271C26.5208 42.5015 25.8945 41.8752 25.125 41.8752Z" fill="#8FACFF"/>
<defs>
<linearGradient id="paint0_linear_1_3021" x1="33.4993" y1="5.58301" x2="33.4993" y2="61.4163" gradientUnits="userSpaceOnUse">
<stop stop-color="#98C93F"/>
<stop offset="1" stop-color="#07A0F3"/>
</linearGradient>
<linearGradient id="paint1_linear_1_3021" x1="48.1562" y1="6.97925" x2="48.1562" y2="19.5417" gradientUnits="userSpaceOnUse">
<stop stop-color="#98C93F"/>
<stop offset="1" stop-color="#07A0F3"/>
</linearGradient>
</defs>
</svg>
