<svg width="65" height="65" viewBox="0 0 65 65" fill="none" xmlns="http://www.w3.org/2000/svg">
<path d="M56.7951 28.0854V36.725C56.7951 43.0083 51.7034 48.1 45.4201 48.1H35.7784C34.2888 48.1 33.0701 49.2917 33.0701 50.8083V53.0292C33.0701 54.5187 34.2888 55.7375 35.7784 55.7375H41.8992C42.9555 55.7375 43.8221 56.5771 43.8221 57.6604C43.8221 58.7167 42.9555 59.5833 41.8992 59.5833H20.3951C19.3388 59.5833 18.4721 58.7167 18.4721 57.6604C18.4721 56.5771 19.3388 55.7375 20.3951 55.7375H26.5159C28.0055 55.7375 29.2242 54.5187 29.2242 53.0292V50.8083C29.2242 49.2917 28.0055 48.1 26.5159 48.1H16.7659C10.5096 48.1 5.41797 43.0083 5.41797 36.725V19.4729C5.41797 13.2167 10.5096 8.125 16.7659 8.125H28.4388C29.9284 8.125 31.1471 9.34375 31.1471 10.8333V16.6562C31.1471 21.8833 34.6409 25.3771 39.8409 25.3771H54.0867C55.5763 25.3771 56.7951 26.5958 56.7951 28.0854Z" fill="url(#paint0_linear_1_2983)"/>
<path d="M59.5549 6.39161L56.4945 8.5312V7.3937C56.4945 4.82078 54.4091 2.76245 51.8633 2.76245H40.2716C37.482 2.73536 35.207 5.01036 35.207 7.79995V16.6833C35.207 19.0124 36.3716 21.3145 39.8383 21.3145H51.8362C54.4091 21.3145 56.4675 19.2291 56.4675 16.6833V15.5187L59.5279 17.6583C61.0716 18.7145 62.2904 18.0645 62.2904 16.2229V7.82703C62.2904 5.98536 61.0716 5.36245 59.5549 6.39161Z" fill="url(#paint1_linear_1_2983)"/>
<defs>
<linearGradient id="paint0_linear_1_2983" x1="10.0015" y1="10" x2="42.0015" y2="59.5" gradientUnits="userSpaceOnUse">
<stop stop-color="#98C93F"/>
<stop offset="1" stop-color="#07A0F3"/>
</linearGradient>
<linearGradient id="paint1_linear_1_2983" x1="35.9985" y1="5" x2="53.9985" y2="20.5" gradientUnits="userSpaceOnUse">
<stop stop-color="#98C93F"/>
<stop offset="1" stop-color="#07A0F3"/>
</linearGradient>
</defs>
</svg>
