<svg width="31" height="12" viewBox="0 0 31 12" fill="none" xmlns="http://www.w3.org/2000/svg">
<path d="M0.72728 6.74078L28.5172 6.74078L24.6677 10.7105C24.5983 10.7797 24.5429 10.8625 24.5047 10.954C24.4666 11.0455 24.4466 11.1439 24.4457 11.2435C24.4449 11.3431 24.4633 11.4418 24.4999 11.534C24.5364 11.6262 24.5904 11.7099 24.6587 11.7803C24.727 11.8507 24.8082 11.9064 24.8976 11.9441C24.987 11.9819 25.0827 12.0008 25.1793 12C25.2759 11.9991 25.3713 11.9784 25.46 11.9391C25.5488 11.8998 25.629 11.8427 25.6961 11.771L30.7871 6.52103C30.9234 6.38039 31 6.18966 31 5.99078C31 5.79191 30.9234 5.60118 30.7871 5.46053L25.6961 0.210533C25.5589 0.0739141 25.3752 -0.00168182 25.1845 2.71482e-05C24.9938 0.00173612 24.8114 0.0806135 24.6766 0.21967C24.5417 0.358726 24.4653 0.546835 24.4636 0.743483C24.4619 0.940131 24.5353 1.12958 24.6677 1.27103L28.5172 5.24078L0.72728 5.24078C0.534394 5.24078 0.349404 5.3198 0.213013 5.46045C0.0766226 5.6011 5.42732e-07 5.79187 5.25342e-07 5.99078C5.07953e-07 6.18969 0.0766225 6.38046 0.213013 6.52111C0.349404 6.66176 0.534394 6.74078 0.72728 6.74078Z" fill="white"/>
</svg>
