<svg width="47" height="47" viewBox="0 0 47 47" fill="none" xmlns="http://www.w3.org/2000/svg">
<path d="M43.8144 22.2818L41.9454 21.4781V20.2001C41.9716 12.3564 37.0225 5.35803 29.6182 2.7696V0.968489C29.6182 0.433867 29.1844 0 28.6501 0H18.2885C17.7542 0 17.3203 0.433867 17.3203 0.968489V2.77911C9.916 5.36755 4.9669 12.3659 4.99316 20.2096V21.4974L3.14348 22.2818C2.78509 22.4331 2.55273 22.7846 2.55273 23.1728V28.2568C2.55273 28.7911 2.9866 29.225 3.52122 29.225H4.78016V31.162C4.78016 31.6963 5.2137 32.1301 5.74832 32.1301H9.22484C9.555 33.3425 10.0401 34.5085 10.6676 35.5968L8.2081 38.0566C7.83233 38.434 7.83233 39.0441 8.2081 39.4219L12.3236 43.5374C12.701 43.9131 13.3111 43.9131 13.6889 43.5374L16.1483 41.0779C17.234 41.7054 18.3961 42.1895 19.6055 42.5206V45.9971C19.6055 46.5314 20.0394 46.9653 20.574 46.9653H26.3839C26.9185 46.9653 27.3524 46.5314 27.3524 45.9971V42.5206C28.5647 42.1905 29.7305 41.7064 30.8191 41.0779L33.2789 43.5374C33.6563 43.9131 34.2664 43.9131 34.6441 43.5374L38.7596 39.4219C39.1354 39.0441 39.1354 38.434 38.7596 38.0566L36.2999 35.5968C36.9274 34.5085 37.4127 33.3425 37.7429 32.1301H41.2191C41.7537 32.1301 42.1876 31.6963 42.1876 31.162V29.225H43.4465C43.9811 29.225 44.4147 28.7911 44.4147 28.2568V23.1728C44.4127 22.7816 44.1758 22.4301 43.8144 22.2818ZM19.2376 1.94649H27.6816V18.1276H19.2569L19.2376 1.94649ZM40.2605 30.1935H37.036C36.5713 30.1827 36.1653 30.5043 36.0675 30.9582C35.7413 32.4747 35.141 33.9184 34.2956 35.2191C34.0465 35.6017 34.1 36.1062 34.4213 36.4294L36.7357 38.7438L33.9661 41.494L31.6517 39.1797C31.3284 38.8584 30.824 38.8049 30.4413 39.054C29.1407 39.899 27.697 40.4996 26.1804 40.8259C25.7262 40.9237 25.4049 41.3296 25.4154 41.7943V45.0575H21.5421V41.7651C21.553 41.3004 21.2313 40.8948 20.7771 40.797C19.2609 40.4714 17.8169 39.8711 16.5166 39.0247C16.1339 38.776 15.6295 38.8291 15.3059 39.1508L12.9915 41.4652L10.2511 38.7245L12.5655 36.4101C12.8871 36.0868 12.9403 35.5824 12.6915 35.1997C11.8382 33.907 11.2281 32.4698 10.8904 30.9582C10.7923 30.5043 10.3866 30.1827 9.92191 30.1935H6.69745V29.225H15.5481C16.0788 33.6001 20.0558 36.7163 24.4309 36.1846C28.0757 35.7422 30.9487 32.8699 31.3905 29.225H40.2509L40.2605 30.1935ZM17.5234 29.225H29.444C28.9113 32.5194 25.8086 34.7583 22.5146 34.2256C19.9445 33.8101 17.9294 31.795 17.5139 29.225H17.5234ZM42.4879 27.2883H4.47987V23.8118L6.34858 23.0081C6.70696 22.8571 6.93932 22.5056 6.93932 22.1171V20.1804C6.91799 13.4174 11.0355 7.33045 17.3203 4.83194V19.0961C17.3203 19.6304 17.7538 20.0642 18.2885 20.0642H28.6691C29.2037 20.0642 29.6376 19.6304 29.6376 19.0961V4.83194C35.9329 7.32947 40.0553 13.4282 40.0281 20.1998V22.1367C40.0281 22.525 40.2605 22.8765 40.6188 23.0275L42.4875 23.8312V27.2883H42.4879Z" fill="white"/>
</svg>
